<?xml version="1.0" encoding="UTF-8"?>
<!-- Generator: visioncortex VTracer 0.6.3 -->
<svg version="1.1" xmlns="http://www.w3.org/2000/svg" width="1280" height="1280">
<path d="M0 0 C1.05 -0 2.11 -0.01 3.2 -0.01 C4.34 -0.01 5.49 -0.01 6.67 -0 C7.84 -0 9.01 -0.01 10.22 -0.01 C12.7 -0.01 15.18 -0.01 17.66 -0 C21.47 0 25.28 -0 29.09 -0.01 C31.49 -0.01 33.89 -0.01 36.3 -0 C37.44 -0.01 38.59 -0.01 39.77 -0.01 C40.83 -0.01 41.89 -0 42.98 0 C44.38 0 44.38 0 45.81 0 C48.05 0.13 48.05 0.13 50.05 1.13 C51.49 1.26 52.93 1.36 54.37 1.44 C59.77 1.93 64.6 3.41 69.75 5.09 C72.91 6.09 76.07 6.88 79.3 7.63 C83.74 8.71 87.69 10.12 91.81 12.08 C95.81 13.95 99.94 15.52 104.05 17.13 C104.05 17.79 104.05 18.45 104.05 19.13 C105.14 19.29 105.14 19.29 106.25 19.46 C109.23 20.17 111.29 21.21 113.92 22.78 C115.25 23.58 115.25 23.58 116.6 24.39 C117.51 24.94 118.43 25.5 119.37 26.07 C120.3 26.62 121.23 27.17 122.19 27.74 C123.07 28.27 123.95 28.8 124.85 29.34 C126.06 30.07 126.06 30.07 127.3 30.82 C127.88 31.25 128.46 31.68 129.05 32.13 C129.05 32.79 129.05 33.45 129.05 34.13 C129.84 34.44 130.62 34.75 131.43 35.07 C134.05 36.13 134.05 36.13 136.05 37.13 C136.05 37.79 136.05 38.45 136.05 39.13 C138.36 39.13 140.67 39.13 143.05 39.13 C143.05 38.47 143.05 37.81 143.05 37.13 C145.12 35.45 147.18 33.9 149.37 32.38 C150.32 31.7 150.32 31.7 151.3 31.01 C156.68 27.28 162.21 24.08 168.05 21.13 C169.62 20.3 169.62 20.3 171.21 19.46 C188.24 10.62 206.95 3.04 226.21 1.38 C228.14 1.22 228.14 1.22 230.05 0.13 C231.74 0.03 233.43 0 235.11 0 C236.7 -0 236.7 -0 238.31 -0.01 C239.45 -0.01 240.59 -0.01 241.77 -0 C242.94 -0 244.11 -0.01 245.31 -0.01 C247.79 -0.01 250.26 -0.01 252.74 -0 C256.54 0 260.34 -0 264.14 -0.01 C266.53 -0.01 268.93 -0.01 271.33 -0 C272.48 -0.01 273.62 -0.01 274.8 -0.01 C275.85 -0.01 276.91 -0 277.99 0 C279.39 0 279.39 0 280.81 0 C283.05 0.13 283.05 0.13 285.05 1.13 C286.33 1.25 287.61 1.38 288.93 1.5 C300.48 2.69 311.45 6.58 322.05 11.13 C324.37 11.91 326.7 12.66 329.04 13.38 C331.05 14.13 331.05 14.13 334.05 16.13 C338.51 16.72 340.55 15.94 344.12 13.35 C357.13 5.15 373.27 4.86 388.05 7.13 C396.94 9.55 404.6 13.79 412.05 19.13 C412.7 19.59 413.34 20.05 414.01 20.52 C424.25 28.55 430.42 40.88 434.05 53.13 C434.51 57.81 434.47 62.49 434.49 67.19 C434.52 68.44 434.56 69.69 434.59 70.97 C434.65 81.02 432.73 90.29 426.74 98.57 C424.62 101.79 424.43 103.33 425.05 107.13 C426.01 108.91 426.97 110.7 428.04 112.41 C429.49 114.86 430.22 117.42 431.05 120.13 C431.55 121.44 432.05 122.76 432.55 124.07 C433.93 127.71 435.05 131.36 436.05 135.13 C436.43 136.51 436.43 136.51 436.81 137.92 C438.4 144.02 439.45 149.86 440.05 156.13 C440.38 156.79 440.71 157.45 441.05 158.13 C441.15 159.82 441.18 161.51 441.18 163.21 C441.19 164.79 441.19 164.79 441.19 166.41 C441.19 167.56 441.19 168.7 441.19 169.88 C441.19 171.05 441.19 172.23 441.19 173.43 C441.19 175.91 441.19 178.39 441.18 180.87 C441.18 184.68 441.18 188.49 441.19 192.3 C441.19 194.7 441.19 197.11 441.19 199.51 C441.19 201.23 441.19 201.23 441.19 202.99 C441.19 204.04 441.19 205.1 441.18 206.18 C441.18 207.58 441.18 207.58 441.18 209.01 C441.05 211.13 441.05 211.13 440.05 212.13 C439.89 213.56 439.77 215 439.68 216.44 C438.6 228.22 434.68 239.33 430.05 250.13 C429.65 251.44 429.26 252.75 428.87 254.07 C424.5 267.34 416.76 279.57 409.05 291.13 C408.61 291.8 408.17 292.46 407.71 293.15 C406.55 294.85 405.31 296.49 404.05 298.13 C403.39 298.13 402.73 298.13 402.05 298.13 C402.05 300.44 402.05 302.75 402.05 305.13 C402.71 305.13 403.37 305.13 404.05 305.13 C407.05 309.51 407.05 309.51 407.05 312.13 C407.71 312.13 408.37 312.13 409.05 312.13 C410.15 313.5 410.15 313.5 411.33 315.42 C411.76 316.11 412.19 316.81 412.64 317.52 C413.08 318.26 413.53 319 413.99 319.75 C414.43 320.47 414.88 321.18 415.33 321.91 C422.05 332.83 422.05 332.83 422.05 337.13 C422.71 337.13 423.37 337.13 424.05 337.13 C424.3 337.75 424.54 338.36 424.79 339 C426.44 343.18 428.12 347.32 430.05 351.38 C432.77 357.4 434.33 363.77 436.05 370.13 C436.34 371.12 436.64 372.1 436.94 373.12 C438.5 378.48 439.47 383.56 439.84 389.13 C439.94 391.2 439.94 391.2 441.05 393.13 C441.15 394.78 441.18 396.44 441.18 398.1 C441.19 399.65 441.19 399.65 441.19 401.23 C441.19 402.35 441.19 403.47 441.19 404.63 C441.19 405.78 441.19 406.92 441.19 408.1 C441.19 410.53 441.19 412.96 441.18 415.39 C441.18 419.11 441.18 422.84 441.19 426.57 C441.19 428.92 441.19 431.28 441.19 433.63 C441.19 435.31 441.19 435.31 441.19 437.03 C441.19 438.06 441.19 439.09 441.18 440.16 C441.18 441.53 441.18 441.53 441.18 442.93 C441.05 445.13 441.05 445.13 440.05 447.13 C439.92 448.56 439.82 450 439.74 451.44 C439.15 457.97 437.09 463.93 435.05 470.13 C434.72 471.31 434.39 472.48 434.05 473.69 C429.4 489.68 422.53 503.87 414.05 518.13 C413.52 519.09 412.99 520.04 412.44 521.03 C411.98 521.72 411.53 522.41 411.05 523.13 C410.39 523.13 409.73 523.13 409.05 523.13 C408.59 524.31 408.59 524.31 408.12 525.5 C407.05 528.13 407.05 528.13 406.05 530.13 C405.39 530.13 404.73 530.13 404.05 530.13 C403.65 531.34 403.65 531.34 403.24 532.57 C402.65 533.84 402.65 533.84 402.05 535.13 C401.06 535.46 400.07 535.79 399.05 536.13 C398.37 537.79 397.7 539.46 397.05 541.13 C395.33 543.21 395.33 543.21 393.28 545.23 C392.54 545.97 391.79 546.71 391.03 547.47 C390.25 548.22 389.48 548.98 388.68 549.75 C387.91 550.52 387.14 551.28 386.35 552.07 C377.16 561.13 377.16 561.13 374.05 561.13 C374.05 561.79 374.05 562.45 374.05 563.13 C370.23 566.62 366.02 569.58 361.05 571.13 C361.05 571.79 361.05 572.45 361.05 573.13 C359.63 573.93 359.63 573.93 358.18 574.75 C355.16 576.47 352.2 578.26 349.24 580.07 C336.51 587.67 323 592.61 308.74 596.59 C307.04 596.99 307.04 596.99 306.05 598.13 C303.96 598.65 301.85 599.12 299.74 599.57 C298.01 599.94 298.01 599.94 296.25 600.31 C295.26 600.5 295.26 600.5 294.25 600.7 C292.72 601 291.2 601.32 289.68 601.66 C280.13 603.58 270.55 603.47 260.86 603.45 C257.89 603.44 254.92 603.47 251.96 603.49 C230.99 603.56 210.6 599.86 191.05 592.13 C189.28 591.47 189.28 591.47 187.47 590.79 C180.19 588.03 173.52 584.91 166.87 580.83 C164.23 579.23 161.55 577.84 158.8 576.44 C151.57 572.56 145.17 567.42 138.71 562.4 C137.36 561.36 135.97 560.37 134.58 559.39 C134.08 558.97 133.57 558.56 133.05 558.13 C133.05 557.47 133.05 556.81 133.05 556.13 C132.06 555.8 131.07 555.47 130.05 555.13 C130.05 554.47 130.05 553.81 130.05 553.13 C129.46 552.86 128.87 552.59 128.26 552.32 C126.03 551.12 124.58 549.9 122.8 548.12 C121.87 547.19 121.87 547.19 120.92 546.25 C119.92 545.23 119.92 545.23 118.9 544.2 C118.19 543.49 117.47 542.78 116.74 542.04 C114.39 539.69 112.04 537.33 109.69 534.97 C108.06 533.33 106.43 531.7 104.8 530.06 C100.51 525.76 96.22 521.46 91.94 517.15 C87.56 512.76 83.19 508.37 78.81 503.98 C70.22 495.37 61.63 486.75 53.05 478.13 C48.52 479.55 45.71 482.05 42.45 485.37 C41.92 485.91 41.38 486.44 40.83 486.99 C39.07 488.75 37.32 490.52 35.57 492.29 C34.35 493.51 33.12 494.74 31.9 495.96 C29.34 498.53 26.78 501.1 24.23 503.67 C20.96 506.97 17.68 510.26 14.39 513.56 C11.87 516.08 9.34 518.62 6.82 521.15 C5.61 522.36 4.4 523.58 3.19 524.79 C1.5 526.49 -0.18 528.19 -1.86 529.89 C-2.37 530.39 -2.87 530.89 -3.39 531.41 C-5.99 534.03 -5.99 534.03 -7.95 537.13 C-7.29 537.13 -6.63 537.13 -5.95 537.13 C-3.73 539.63 -1.88 542.41 0.05 545.13 C0.73 546.02 1.41 546.9 2.12 547.82 C6.68 555.62 9.86 564.05 10.05 573.13 C10.09 574.79 10.09 574.79 10.14 576.48 C10.18 580.03 10.14 583.57 10.05 587.13 C10.04 587.95 10.02 588.76 10 589.61 C9.11 603.6 -0.07 617.12 -10.03 626.46 C-16.1 631.74 -22.45 635.15 -29.95 638.13 C-30.76 638.45 -31.56 638.78 -32.4 639.11 C-46.91 643.96 -63.11 642.06 -76.95 636.13 C-80.44 634.33 -83.72 632.37 -86.95 630.13 C-87.94 629.47 -88.93 628.81 -89.95 628.13 C-89.95 627.47 -89.95 626.81 -89.95 626.13 C-91.93 625.47 -93.91 624.81 -95.95 624.13 C-96.78 624.99 -97.62 625.85 -98.48 626.74 C-101.61 629.96 -104.75 633.16 -107.9 636.35 C-109.25 637.74 -110.61 639.12 -111.95 640.51 C-113.9 642.52 -115.86 644.51 -117.82 646.49 C-118.42 647.11 -119.01 647.73 -119.62 648.37 C-124.31 653.06 -128.91 655.81 -135.7 656.34 C-143.06 655.48 -147.4 653.19 -152.26 647.5 C-156.27 641.85 -156.29 636.33 -155.57 629.63 C-150.72 619.19 -139.77 610.92 -131.53 603.1 C-130.66 602.26 -129.8 601.41 -128.91 600.54 C-128.12 599.79 -127.34 599.04 -126.53 598.26 C-124.7 596.3 -124.7 596.3 -125.2 594.17 C-126.44 590.79 -129.09 588.52 -131.59 586.02 C-132.16 585.44 -132.72 584.87 -133.31 584.28 C-134.5 583.07 -135.71 581.86 -136.91 580.66 C-138.76 578.82 -140.58 576.96 -142.4 575.09 C-143.57 573.92 -144.74 572.75 -145.9 571.58 C-146.45 571.02 -146.99 570.46 -147.56 569.88 C-149.26 568.15 -149.26 568.15 -151.95 566.13 C-155.54 566.4 -157.3 568.11 -159.78 570.59 C-160.53 571.34 -161.29 572.09 -162.07 572.86 C-162.89 573.69 -163.71 574.52 -164.56 575.38 C-165.44 576.26 -166.33 577.14 -167.24 578.05 C-169.7 580.5 -172.16 582.97 -174.61 585.44 C-177.27 588.11 -179.95 590.78 -182.62 593.45 C-187.31 598.14 -191.99 602.83 -196.67 607.52 C-203.63 614.5 -210.59 621.47 -217.56 628.44 C-229.28 640.17 -240.99 651.9 -252.7 663.63 C-264.31 675.26 -275.91 686.88 -287.52 698.49 C-288.24 699.22 -288.96 699.94 -289.7 700.68 C-293.37 704.35 -297.03 708.01 -300.69 711.68 C-308.14 719.13 -315.59 726.59 -323.04 734.04 C-323.79 734.79 -324.53 735.53 -325.3 736.3 C-343.06 754.08 -360.82 771.86 -378.57 789.64 C-379.35 790.41 -380.12 791.19 -380.92 791.99 C-387.22 798.3 -393.52 804.6 -399.81 810.91 C-417.94 829.06 -436.07 847.21 -454.19 865.36 C-454.97 866.14 -455.75 866.92 -456.55 867.72 C-474.27 885.46 -491.99 903.2 -509.72 920.94 C-510.46 921.69 -511.2 922.43 -511.97 923.2 C-519.4 930.64 -526.84 938.08 -534.27 945.52 C-550.25 961.51 -566.24 977.51 -582.21 993.52 C-593.85 1005.18 -605.5 1016.84 -617.15 1028.5 C-624.08 1035.44 -631 1042.37 -637.92 1049.31 C-642.54 1053.94 -647.17 1058.57 -651.79 1063.19 C-654.43 1065.83 -657.06 1068.47 -659.7 1071.11 C-662.53 1073.96 -665.37 1076.79 -668.21 1079.63 C-669.44 1080.87 -669.44 1080.87 -670.7 1082.13 C-671.83 1083.26 -671.83 1083.26 -672.99 1084.42 C-673.64 1085.07 -674.29 1085.72 -674.95 1086.39 C-679.49 1090.36 -684.73 1093.33 -690.88 1092.94 C-697.28 1091.24 -702.24 1088.84 -706.95 1084.13 C-709.88 1079.04 -711.09 1073.91 -709.95 1068.13 C-706.98 1061 -702.75 1056.37 -697.29 1050.98 C-696.4 1050.08 -695.51 1049.19 -694.6 1048.27 C-692.14 1045.8 -689.66 1043.34 -687.18 1040.88 C-684.49 1038.2 -681.81 1035.51 -679.13 1032.82 C-674.43 1028.11 -669.72 1023.41 -665 1018.71 C-657.99 1011.72 -650.99 1004.73 -644 997.73 C-632.23 985.95 -620.45 974.19 -608.67 962.43 C-597 950.78 -585.33 939.13 -573.68 927.48 C-572.95 926.75 -572.23 926.03 -571.48 925.28 C-567.8 921.6 -564.12 917.92 -560.44 914.25 C-534.37 888.18 -508.28 862.13 -482.2 836.08 C-456.85 810.77 -431.51 785.46 -406.18 760.14 C-405.4 759.36 -404.62 758.58 -403.81 757.77 C-395.97 749.94 -388.13 742.1 -380.29 734.27 C-364.31 718.3 -348.34 702.34 -332.36 686.37 C-331.26 685.27 -331.26 685.27 -330.14 684.15 C-281.08 635.13 -232.02 586.13 -182.95 537.13 C-183.61 535.15 -184.27 533.17 -184.95 531.13 C-185.61 531.13 -186.27 531.13 -186.95 531.13 C-191.45 525.65 -194.33 519.7 -196.95 513.13 C-197.27 512.32 -197.59 511.51 -197.93 510.68 C-202.99 495.55 -200.87 477.7 -193.95 463.63 C-186.12 449.89 -174.65 439.96 -159.95 434.13 C-159.12 433.74 -158.3 433.35 -157.45 432.94 C-149.36 430.31 -140.34 430.92 -131.95 431.13 C-131.14 431.15 -130.34 431.16 -129.51 431.18 C-118.32 431.9 -108.61 437.4 -99.95 444.13 C-99.2 444.65 -98.44 445.18 -97.67 445.72 C-97.1 446.18 -96.53 446.65 -95.95 447.13 C-95.95 447.79 -95.95 448.45 -95.95 449.13 C-89.04 443.32 -82.65 437.01 -76.26 430.65 C-75.72 430.11 -75.18 429.57 -74.62 429.01 C-71.75 426.16 -68.89 423.31 -66.04 420.46 C-63.09 417.52 -60.13 414.58 -57.17 411.65 C-54.89 409.39 -52.61 407.12 -50.34 404.85 C-49.25 403.76 -48.16 402.68 -47.07 401.6 C-45.55 400.09 -44.03 398.58 -42.52 397.06 C-41.66 396.2 -40.8 395.35 -39.91 394.46 C-37.94 392.12 -37.25 391.11 -36.95 388.13 C-37.97 386.37 -37.97 386.37 -39.67 384.81 C-40.3 384.18 -40.93 383.55 -41.58 382.89 C-42.29 382.21 -42.99 381.53 -43.72 380.82 C-44.45 380.09 -45.18 379.36 -45.93 378.61 C-48.36 376.2 -50.81 373.8 -53.26 371.4 C-54.94 369.73 -56.62 368.06 -58.3 366.39 C-62.74 361.98 -67.19 357.59 -71.65 353.2 C-78.78 346.18 -85.89 339.13 -92.99 332.08 C-95.49 329.61 -97.99 327.15 -100.49 324.69 C-102.01 323.18 -103.53 321.68 -105.05 320.18 C-105.75 319.49 -106.45 318.8 -107.18 318.09 C-107.81 317.47 -108.44 316.84 -109.09 316.19 C-109.65 315.64 -110.2 315.1 -110.77 314.54 C-111.95 313.13 -111.95 313.13 -111.95 311.13 C-112.94 310.8 -113.93 310.47 -114.95 310.13 C-114.95 309.47 -114.95 308.81 -114.95 308.13 C-115.61 308.13 -116.27 308.13 -116.95 308.13 C-118.54 306.31 -120 304.5 -121.45 302.57 C-121.89 301.99 -122.33 301.41 -122.78 300.81 C-129.94 291.23 -136.58 281.52 -141.72 270.69 C-142.72 268.6 -143.79 266.66 -145.01 264.69 C-150.45 255.35 -153.16 244.49 -155.95 234.13 C-156.3 232.88 -156.65 231.62 -157.01 230.33 C-157.54 228.44 -157.54 228.44 -158.07 226.5 C-158.38 225.38 -158.7 224.25 -159.02 223.09 C-159.34 221.77 -159.65 220.45 -159.95 219.13 C-160.22 217.97 -160.22 217.97 -160.5 216.8 C-162.45 207.11 -162.28 197.34 -162.26 187.5 C-162.26 184.47 -162.28 181.43 -162.31 178.39 C-162.36 161.19 -159.69 145.66 -154.95 129.13 C-154.69 128.18 -154.43 127.23 -154.17 126.25 C-152.86 121.6 -151.24 117.45 -148.97 113.18 C-147.84 110.92 -146.96 108.62 -146.07 106.25 C-144.32 101.77 -142.08 97.82 -139.54 93.73 C-136.83 89.3 -134.4 84.71 -131.95 80.13 C-131.29 80.13 -130.63 80.13 -129.95 80.13 C-129.7 79.41 -129.45 78.69 -129.2 77.95 C-124.32 66.95 -113 57.21 -104.7 48.63 C-103.91 47.81 -103.12 47 -102.31 46.16 C-99.9 44.09 -97.85 43.29 -94.95 42.13 C-94.62 41.14 -94.29 40.15 -93.95 39.13 C-91.38 37.94 -91.38 37.94 -88.95 37.13 C-88.95 36.47 -88.95 35.81 -88.95 35.13 C-84.56 32.13 -84.56 32.13 -81.95 32.13 C-81.95 31.47 -81.95 30.81 -81.95 30.13 C-68.11 20.03 -52.1 13.44 -35.95 8.13 C-35.06 7.82 -34.18 7.52 -33.26 7.2 C-24.9 4.31 -16.7 1.93 -7.85 1.34 C-4.93 1.02 -3.32 0 0 0 Z M5.74 39.44 C4.68 39.56 3.61 39.68 2.52 39.8 C-4.53 40.64 -11.16 42.07 -17.95 44.13 C-19.2 44.49 -20.45 44.86 -21.74 45.23 C-40.02 51.06 -63.32 61.4 -75.95 76.13 C-75.95 76.79 -75.95 77.45 -75.95 78.13 C-76.48 78.34 -77.02 78.54 -77.57 78.75 C-80.87 80.66 -83.54 83.18 -85.95 86.13 C-85.95 86.79 -85.95 87.45 -85.95 88.13 C-86.61 88.13 -87.27 88.13 -87.95 88.13 C-89.54 89.84 -89.54 89.84 -91.07 92 C-91.88 93.08 -91.88 93.08 -92.7 94.18 C-94.13 96.03 -94.13 96.03 -93.95 98.13 C-94.61 98.13 -95.27 98.13 -95.95 98.13 C-95.95 99.12 -95.95 100.11 -95.95 101.13 C-96.61 101.13 -97.27 101.13 -97.95 101.13 C-104.97 111.03 -110.38 121.77 -114.04 133.32 C-114.79 135.64 -115.61 137.87 -116.51 140.13 C-126.65 167.02 -126.5 203.3 -115.74 230.03 C-115.15 231.59 -114.63 233.17 -114.15 234.76 C-110.08 248.17 -102.88 259.69 -94.95 271.13 C-93.9 272.78 -93.9 272.78 -92.84 274.47 C-92.21 275.35 -91.59 276.22 -90.95 277.13 C-90.29 277.13 -89.63 277.13 -88.95 277.13 C-88.72 277.67 -88.5 278.21 -88.27 278.77 C-86.53 281.87 -84.24 284.31 -81.82 286.87 C-81.3 287.44 -80.77 288 -80.23 288.59 C-74 295.21 -67.56 301.63 -61.12 308.04 C-58.88 310.26 -56.65 312.48 -54.42 314.71 C-49.7 319.41 -44.98 324.12 -40.26 328.82 C-34.74 334.31 -29.23 339.8 -23.72 345.3 C-21.52 347.49 -19.32 349.68 -17.12 351.87 C-15.78 353.2 -14.45 354.53 -13.11 355.87 C-12.5 356.47 -11.89 357.08 -11.25 357.71 C-7.06 361.9 -7.06 361.9 -5.95 364.13 C-5.29 364.13 -4.63 364.13 -3.95 364.13 C-3.67 364.68 -3.4 365.24 -3.11 365.81 C-2.32 367.38 -1.5 368.94 -0.66 370.48 C4.09 380.13 5.19 391.83 2.14 402.24 C1.05 404.63 1.05 404.63 -0.07 406.54 C-1.19 408.26 -1.19 408.26 -0.95 411.13 C-1.61 411.13 -2.27 411.13 -2.95 411.13 C-3.9 412.55 -4.85 413.98 -5.76 415.42 C-7.78 418.33 -10.3 420.7 -12.83 423.16 C-13.7 424.02 -13.7 424.02 -14.58 424.89 C-15.83 426.12 -17.08 427.34 -18.33 428.57 C-20.3 430.5 -22.27 432.45 -24.24 434.39 C-29.83 439.92 -35.42 445.44 -41.03 450.95 C-44.47 454.32 -47.9 457.71 -51.32 461.1 C-52.62 462.4 -53.93 463.68 -55.25 464.96 C-57.08 466.75 -58.9 468.55 -60.71 470.35 C-61.26 470.88 -61.81 471.41 -62.37 471.95 C-64.04 473.57 -64.04 473.57 -65.95 476.13 C-66.07 478.42 -66.07 478.42 -64.95 480.13 C-63.62 480.81 -62.29 481.48 -60.95 482.13 C-60.26 483.45 -59.6 484.79 -58.95 486.13 C-57.96 486.46 -56.97 486.79 -55.95 487.13 C-55.28 488.46 -54.61 489.8 -53.95 491.13 C-52.96 491.46 -51.97 491.79 -50.95 492.13 C-50.28 493.46 -49.61 494.8 -48.95 496.13 C-47.96 496.46 -46.97 496.79 -45.95 497.13 C-45.28 498.46 -44.61 499.8 -43.95 501.13 C-42.96 501.46 -41.97 501.79 -40.95 502.13 C-40.64 502.79 -40.33 503.45 -40.01 504.13 C-39.12 506.23 -39.12 506.23 -37.26 507.1 C-34.66 507.38 -34.66 507.38 -32.18 504.95 C-31.09 503.87 -30.02 502.78 -28.96 501.68 C-28.07 500.79 -28.07 500.79 -27.17 499.88 C-25.22 497.92 -23.29 495.94 -21.35 493.95 C-20 492.59 -18.65 491.22 -17.3 489.86 C-13.73 486.26 -10.18 482.65 -6.63 479.04 C-0.95 473.26 4.75 467.5 10.45 461.74 C12.44 459.73 14.42 457.7 16.4 455.68 C17.62 454.45 18.84 453.21 20.06 451.97 C20.61 451.41 21.16 450.84 21.73 450.26 C24.31 447.65 26.6 445.48 30.05 444.13 C30.05 443.47 30.05 442.81 30.05 442.13 C30.64 442 31.22 441.86 31.82 441.73 C34.34 441.11 34.34 441.11 37.72 439.6 C42.28 437.87 46.46 437.59 51.3 437.63 C52.13 437.63 52.96 437.63 53.81 437.64 C61.01 437.82 66.74 439.66 73.05 443.13 C74.38 443.8 75.72 444.47 77.05 445.13 C77.05 445.79 77.05 446.45 77.05 447.13 C78.59 448.68 78.59 448.68 80.58 450.29 C84.79 453.87 88.71 457.66 92.6 461.58 C93.31 462.29 94.01 462.99 94.74 463.72 C96.26 465.25 97.78 466.77 99.3 468.3 C101.7 470.71 104.1 473.12 106.51 475.53 C111.61 480.65 116.71 485.76 121.8 490.88 C127.72 496.82 133.65 502.77 139.58 508.71 C141.94 511.08 144.31 513.46 146.67 515.84 C148.12 517.29 149.57 518.75 151.02 520.2 C151.68 520.86 152.34 521.52 153.01 522.2 C157.24 526.51 157.24 526.51 162.05 530.13 C162.71 530.13 163.37 530.13 164.05 530.13 C164.05 530.79 164.05 531.45 164.05 532.13 C166.27 533.79 168.48 535.32 170.8 536.82 C171.48 537.26 172.17 537.71 172.87 538.17 C187.31 547.55 202.02 555.55 218.93 559.25 C226.82 561.01 226.82 561.01 229.05 562.13 C252.73 565.6 276.15 565.41 299.05 558.13 C300.11 557.84 301.16 557.56 302.25 557.26 C315.35 553.63 328.9 546.94 340.05 539.13 C340.05 538.47 340.05 537.81 340.05 537.13 C341.04 537.13 342.03 537.13 343.05 537.13 C343.05 536.47 343.05 535.81 343.05 535.13 C343.59 534.88 344.13 534.63 344.68 534.38 C347.64 532.82 350.35 531.1 353.05 529.13 C353.05 528.47 353.05 527.81 353.05 527.13 C353.59 526.92 354.13 526.72 354.68 526.5 C357.97 524.6 360.65 522.08 363.05 519.13 C363.05 518.47 363.05 517.81 363.05 517.13 C363.71 517.13 364.37 517.13 365.05 517.13 C373.55 507.94 380.33 497.2 386.05 486.13 C386.5 485.28 386.94 484.44 387.4 483.56 C399.61 459.76 405.09 432.79 402.05 406.13 C401.92 404.77 401.8 403.42 401.67 402.06 C400.73 392.75 398.69 384.08 396.05 375.13 C395.79 374.17 395.53 373.21 395.27 372.22 C394.03 367.72 392.56 363.95 390.1 360 C387.99 356.24 386.57 352.15 385.05 348.13 C384.39 348.13 383.73 348.13 383.05 348.13 C382.91 347.31 382.91 347.31 382.77 346.48 C381.85 343.46 380.34 341.2 378.62 338.57 C378 337.62 377.38 336.67 376.74 335.69 C375.52 333.83 374.29 331.98 373.05 330.13 C372.39 330.13 371.73 330.13 371.05 330.13 C370.72 328.81 370.39 327.49 370.05 326.13 C369.39 326.13 368.73 326.13 368.05 326.13 C367.65 325.26 367.65 325.26 367.24 324.36 C366.04 322.1 364.71 320.32 363.05 318.38 C362.28 317.46 362.28 317.46 361.49 316.52 C360.15 314.9 360.15 314.9 358.05 315.13 C353.07 301.02 353.07 301.02 355.83 294.35 C358.65 289.22 362.57 284.5 366.8 280.46 C368.28 279.19 368.28 279.19 368.05 277.13 C368.71 277.13 369.37 277.13 370.05 277.13 C371.88 274.75 373.57 272.37 375.24 269.88 C375.98 268.79 375.98 268.79 376.73 267.67 C382.87 258.53 388.2 249.48 392.05 239.13 C392.83 237.37 392.83 237.37 393.62 235.57 C405.41 207.37 406.45 173.12 397.05 144.13 C396.74 143.05 396.43 141.98 396.12 140.87 C393.84 133.06 390.75 126.32 386.95 119.16 C378.77 103.7 378.77 103.7 380.93 94.32 C381.3 93.27 381.67 92.21 382.05 91.13 C382.39 89.8 382.73 88.47 383.05 87.13 C383.71 87.13 384.37 87.13 385.05 87.13 C385.05 86.47 385.05 85.81 385.05 85.13 C385.63 84.9 386.21 84.68 386.8 84.44 C391.27 81.84 393.45 77.91 395.05 73.13 C395.64 67.2 395.44 61.66 393.05 56.13 C392.39 56.13 391.73 56.13 391.05 56.13 C390.81 55.51 390.56 54.89 390.3 54.25 C388.85 51.78 387.67 51.18 385.05 50.13 C385.05 49.47 385.05 48.81 385.05 48.13 C378.63 45.35 371.5 44.98 364.87 47.19 C361 49.85 357.29 52.72 354.05 56.13 C354.05 56.79 354.05 57.45 354.05 58.13 C353.54 58.25 353.02 58.38 352.49 58.5 C349.9 59.13 349.9 59.13 346.87 60.25 C336.42 62.65 328.98 57.94 320.04 53.19 C312.53 49.2 305.25 46.49 297.05 44.13 C296.23 43.86 295.4 43.59 294.55 43.32 C269.56 35.6 240.88 36.09 216.05 44.13 C214.44 44.59 214.44 44.59 212.8 45.07 C207.26 46.68 202.05 48.38 196.97 51.11 C193.43 52.99 189.73 54.53 186.05 56.13 C186.05 56.79 186.05 57.45 186.05 58.13 C184.73 58.13 183.41 58.13 182.05 58.13 C182.05 58.79 182.05 59.45 182.05 60.13 C181.37 60.37 180.68 60.6 179.98 60.85 C176.45 62.39 173.39 64.43 170.24 66.63 C169.34 67.23 169.34 67.23 168.43 67.85 C166.93 68.89 165.49 70 164.05 71.13 C164.05 71.79 164.05 72.45 164.05 73.13 C163.19 73.53 163.19 73.53 162.3 73.94 C160 75.16 158.03 76.43 156.05 78.13 C156.05 78.79 156.05 79.45 156.05 80.13 C155.19 80.53 155.19 80.53 154.3 80.94 C152.04 82.02 152.04 82.02 150.37 83.63 C146.03 86.44 141.47 87.59 136.35 86.62 C133.87 85.88 131.47 85.05 129.05 84.13 C128.06 83.8 127.07 83.47 126.05 83.13 C126.05 82.47 126.05 81.81 126.05 81.13 C124.37 79.35 124.37 79.35 122.24 77.57 C121.18 76.64 121.18 76.64 120.1 75.69 C118.04 73.95 118.04 73.95 115.05 73.13 C115.05 72.47 115.05 71.81 115.05 71.13 C113.73 70.8 112.41 70.47 111.05 70.13 C111.05 69.47 111.05 68.81 111.05 68.13 C108.65 66.33 106.25 64.65 103.74 63 C103.05 62.54 102.36 62.07 101.65 61.59 C100.98 61.14 100.31 60.7 99.63 60.25 C99.01 59.84 98.4 59.43 97.77 59.02 C95.93 57.9 95.93 57.9 93.05 58.13 C93.05 57.47 93.05 56.81 93.05 56.13 C90.53 55.02 88.01 53.92 85.49 52.82 C84.79 52.51 84.08 52.2 83.36 51.88 C81.94 51.26 80.53 50.64 79.11 50.03 C77.79 49.45 76.46 48.87 75.14 48.29 C67.93 45.14 60.84 43.12 53.05 42.13 C52.72 41.8 52.39 41.47 52.05 41.13 C47.89 40.45 43.68 40.04 39.49 39.57 C38.32 39.43 37.15 39.29 35.95 39.15 C25.57 37.96 16.12 38.19 5.74 39.44 Z M-153.95 476.13 C-153.95 476.79 -153.95 477.45 -153.95 478.13 C-154.61 478.13 -155.27 478.13 -155.95 478.13 C-160.43 486.91 -160.43 486.91 -160.35 496.5 C-156.83 506.48 -148.82 513.41 -141.49 520.78 C-140.68 521.6 -139.86 522.42 -139.02 523.27 C-136.35 525.97 -133.67 528.67 -130.99 531.36 C-130.07 532.29 -129.15 533.21 -128.2 534.17 C-124.33 538.06 -120.46 541.94 -116.59 545.83 C-111.07 551.36 -105.56 556.91 -100.06 562.46 C-96.18 566.39 -92.28 570.3 -88.38 574.21 C-86.05 576.54 -83.74 578.87 -81.43 581.21 C-78.85 583.82 -76.26 586.41 -73.66 589 C-72.91 589.77 -72.16 590.54 -71.38 591.33 C-65.17 597.47 -57.96 602.13 -48.95 602.13 C-44.77 600.83 -40.85 599.08 -36.95 597.13 C-36.95 596.47 -36.95 595.81 -36.95 595.13 C-36.29 595.13 -35.63 595.13 -34.95 595.13 C-31.58 591.84 -30.08 588.3 -29.55 583.66 C-29.49 578 -29.52 573.31 -31.95 568.13 C-32.61 568.13 -33.27 568.13 -33.95 568.13 C-34.2 567.55 -34.46 566.97 -34.72 566.37 C-36.07 563.9 -37.57 562.26 -39.55 560.27 C-40.3 559.52 -41.05 558.76 -41.82 557.98 C-42.64 557.17 -43.47 556.35 -44.31 555.51 C-45.18 554.64 -46.04 553.77 -46.93 552.87 C-49.3 550.5 -51.68 548.12 -54.06 545.75 C-56.54 543.27 -59.02 540.79 -61.5 538.3 C-65.67 534.13 -69.84 529.97 -74.01 525.8 C-78.84 520.98 -83.66 516.16 -88.48 511.33 C-92.62 507.19 -96.75 503.05 -100.9 498.91 C-103.37 496.44 -105.84 493.97 -108.31 491.49 C-111.06 488.73 -113.82 485.98 -116.58 483.24 C-117.4 482.41 -118.23 481.58 -119.07 480.73 C-119.82 479.99 -120.57 479.25 -121.34 478.48 C-121.99 477.83 -122.64 477.18 -123.32 476.51 C-124.85 474.91 -124.85 474.91 -126.95 475.13 C-126.95 474.47 -126.95 473.81 -126.95 473.13 C-135.45 469.14 -147.05 469.07 -153.95 476.13 Z " fill="#000000" transform="translate(838.947021484375,-0.12939453125)"/>
<path d="M0 0 C6.22 3.35 10.24 7.65 12.4 14.3 C14.08 20.81 12.02 25.58 8.91 31.27 C6.97 33.84 4.78 36.05 2.48 38.29 C1.83 38.94 1.19 39.58 0.52 40.25 C-1.62 42.39 -3.78 44.52 -5.94 46.64 C-7.49 48.18 -9.03 49.73 -10.58 51.27 C-13.9 54.58 -17.22 57.88 -20.56 61.18 C-25.83 66.39 -31.08 71.62 -36.32 76.85 C-46.04 86.53 -55.77 96.19 -65.51 105.85 C-78.99 119.23 -92.46 132.62 -105.92 146.02 C-111.14 151.23 -116.37 156.42 -121.61 161.6 C-124.86 164.83 -128.1 168.05 -131.34 171.28 C-132.85 172.78 -134.36 174.28 -135.88 175.77 C-137.94 177.8 -139.99 179.85 -142.04 181.89 C-142.64 182.49 -143.25 183.08 -143.87 183.69 C-146.65 186.48 -148.36 188.39 -149.09 192.27 C-148.45 192.54 -147.81 192.81 -147.15 193.09 C-145.09 194.27 -145.09 194.27 -144.09 197.27 C-143.43 197.6 -142.77 197.93 -142.09 198.27 C-141.43 198.6 -140.77 198.93 -140.09 199.27 C-139.76 200.26 -139.43 201.25 -139.09 202.27 C-138.43 202.6 -137.77 202.93 -137.09 203.27 C-136.43 203.6 -135.77 203.93 -135.09 204.27 C-134.76 205.26 -134.43 206.25 -134.09 207.27 C-133.43 207.6 -132.77 207.93 -132.09 208.27 C-131.43 208.6 -130.77 208.93 -130.09 209.27 C-129.76 210.26 -129.43 211.25 -129.09 212.27 C-128.43 212.6 -127.77 212.93 -127.09 213.27 C-126.43 213.6 -125.77 213.93 -125.09 214.27 C-124.76 215.26 -124.43 216.25 -124.09 217.27 C-119.56 218.21 -119.56 218.21 -115.09 217.27 C-114.76 216.61 -114.43 215.95 -114.09 215.27 C-113.09 213.27 -113.09 213.27 -110.09 212.27 C-109.76 211.61 -109.43 210.95 -109.09 210.27 C-108.09 208.27 -108.09 208.27 -105.09 207.27 C-104.76 206.61 -104.43 205.95 -104.09 205.27 C-103.09 203.27 -103.09 203.27 -100.09 202.27 C-99.76 201.61 -99.43 200.95 -99.09 200.27 C-98.09 198.27 -98.09 198.27 -95.09 197.27 C-94.76 196.61 -94.43 195.95 -94.09 195.27 C-93.09 193.27 -93.09 193.27 -90.09 192.27 C-89.8 191.68 -89.51 191.08 -89.21 190.46 C-86.44 185.07 -80.27 182.42 -74.88 180.26 C-70.16 179.03 -65.76 178.76 -60.9 178.71 C-60.07 178.7 -59.24 178.68 -58.38 178.67 C-44.09 178.9 -33.33 188.57 -23.76 198.24 C-22.88 199.13 -21.99 200.01 -21.08 200.92 C-18.68 203.31 -16.29 205.72 -13.9 208.13 C-11.39 210.65 -8.87 213.17 -6.35 215.69 C-2.13 219.92 2.09 224.15 6.3 228.39 C11.71 233.82 17.12 239.24 22.54 244.66 C27.2 249.33 31.87 254.01 36.53 258.69 C38.03 260.19 39.52 261.68 41.02 263.18 C43.8 265.97 46.58 268.77 49.36 271.56 C50.18 272.39 51.01 273.22 51.86 274.07 C52.62 274.83 53.38 275.59 54.16 276.38 C54.81 277.04 55.47 277.7 56.14 278.38 C60.91 283.5 60.91 283.5 60.91 287.27 C61.57 287.27 62.23 287.27 62.91 287.27 C66.84 295.48 67.2 303.29 66.91 312.27 C66.87 313.57 66.83 314.87 66.79 316.21 C65.78 323.41 60.88 331.12 55.91 336.27 C55.25 336.27 54.59 336.27 53.91 336.27 C53.91 336.93 53.91 337.59 53.91 338.27 C52.54 339.9 52.54 339.9 50.91 341.27 C50.25 341.27 49.59 341.27 48.91 341.27 C48.91 341.93 48.91 342.59 48.91 343.27 C47.54 344.9 47.54 344.9 45.91 346.27 C45.25 346.27 44.59 346.27 43.91 346.27 C43.91 346.93 43.91 347.59 43.91 348.27 C42.54 349.9 42.54 349.9 40.91 351.27 C40.25 351.27 39.59 351.27 38.91 351.27 C38.91 351.93 38.91 352.59 38.91 353.27 C37.54 354.9 37.54 354.9 35.91 356.27 C35.25 356.27 34.59 356.27 33.91 356.27 C33.91 356.93 33.91 357.59 33.91 358.27 C32.54 359.9 32.54 359.9 30.91 361.27 C30.25 361.27 29.59 361.27 28.91 361.27 C28.91 361.93 28.91 362.59 28.91 363.27 C23.43 368.27 23.43 368.27 20.91 368.27 C20.91 368.93 20.91 369.59 20.91 370.27 C10.42 376.48 -1.05 378.78 -13.09 376.27 C-20.09 374.12 -26.53 369.99 -32.09 365.27 C-32.09 364.61 -32.09 363.95 -32.09 363.27 C-33.08 362.94 -34.07 362.61 -35.09 362.27 C-35.09 361.61 -35.09 360.95 -35.09 360.27 C-35.75 360.27 -36.41 360.27 -37.09 360.27 C-37.09 359.61 -37.09 358.95 -37.09 358.27 C-38.08 357.94 -39.07 357.61 -40.09 357.27 C-40.09 356.61 -40.09 355.95 -40.09 355.27 C-40.75 355.27 -41.41 355.27 -42.09 355.27 C-42.09 354.61 -42.09 353.95 -42.09 353.27 C-43.08 352.94 -44.07 352.61 -45.09 352.27 C-45.09 351.61 -45.09 350.95 -45.09 350.27 C-45.75 350.27 -46.41 350.27 -47.09 350.27 C-47.09 349.61 -47.09 348.95 -47.09 348.27 C-48.08 347.94 -49.07 347.61 -50.09 347.27 C-50.09 346.61 -50.09 345.95 -50.09 345.27 C-50.75 345.27 -51.41 345.27 -52.09 345.27 C-52.09 344.61 -52.09 343.95 -52.09 343.27 C-53.08 342.94 -54.07 342.61 -55.09 342.27 C-55.09 341.61 -55.09 340.95 -55.09 340.27 C-55.75 340.27 -56.41 340.27 -57.09 340.27 C-57.09 339.61 -57.09 338.95 -57.09 338.27 C-59.07 337.61 -61.05 336.95 -63.09 336.27 C-63.09 336.93 -63.09 337.59 -63.09 338.27 C-64.41 339.54 -64.41 339.54 -66.21 340.96 C-69.41 343.6 -72.03 346.41 -74.68 349.59 C-76.69 351.99 -78.78 354.16 -81.09 356.27 C-81.75 356.27 -82.41 356.27 -83.09 356.27 C-83.09 356.93 -83.09 357.59 -83.09 358.27 C-84.46 359.9 -84.46 359.9 -86.09 361.27 C-86.75 361.27 -87.41 361.27 -88.09 361.27 C-88.09 361.93 -88.09 362.59 -88.09 363.27 C-88.75 363.27 -89.41 363.27 -90.09 363.27 C-90.42 364.59 -90.75 365.91 -91.09 367.27 C-90.43 367.27 -89.77 367.27 -89.09 367.27 C-89.09 367.93 -89.09 368.59 -89.09 369.27 C-88.1 369.6 -87.11 369.93 -86.09 370.27 C-86.09 370.93 -86.09 371.59 -86.09 372.27 C-85.43 372.27 -84.77 372.27 -84.09 372.27 C-84.09 372.93 -84.09 373.59 -84.09 374.27 C-83.1 374.6 -82.11 374.93 -81.09 375.27 C-81.09 375.93 -81.09 376.59 -81.09 377.27 C-80.43 377.27 -79.77 377.27 -79.09 377.27 C-79.09 377.93 -79.09 378.59 -79.09 379.27 C-78.1 379.6 -77.11 379.93 -76.09 380.27 C-76.09 380.93 -76.09 381.59 -76.09 382.27 C-75.43 382.27 -74.77 382.27 -74.09 382.27 C-74.09 382.93 -74.09 383.59 -74.09 384.27 C-73.1 384.6 -72.11 384.93 -71.09 385.27 C-71.09 385.93 -71.09 386.59 -71.09 387.27 C-70.43 387.27 -69.77 387.27 -69.09 387.27 C-69.09 387.93 -69.09 388.59 -69.09 389.27 C-68.1 389.6 -67.11 389.93 -66.09 390.27 C-66.09 390.93 -66.09 391.59 -66.09 392.27 C-65.43 392.27 -64.77 392.27 -64.09 392.27 C-64.09 392.93 -64.09 393.59 -64.09 394.27 C-63.1 394.6 -62.11 394.93 -61.09 395.27 C-61.09 395.93 -61.09 396.59 -61.09 397.27 C-60.43 397.27 -59.77 397.27 -59.09 397.27 C-51.88 406.44 -48.5 417.46 -49.38 429.05 C-51.36 439.96 -56.5 448.34 -64.09 456.27 C-64.75 456.27 -65.41 456.27 -66.09 456.27 C-66.09 456.93 -66.09 457.59 -66.09 458.27 C-67.46 459.9 -67.46 459.9 -69.09 461.27 C-69.75 461.27 -70.41 461.27 -71.09 461.27 C-71.09 461.93 -71.09 462.59 -71.09 463.27 C-72.46 464.9 -72.46 464.9 -74.09 466.27 C-74.75 466.27 -75.41 466.27 -76.09 466.27 C-76.09 466.93 -76.09 467.59 -76.09 468.27 C-77.46 469.9 -77.46 469.9 -79.09 471.27 C-79.75 471.27 -80.41 471.27 -81.09 471.27 C-81.09 471.93 -81.09 472.59 -81.09 473.27 C-82.46 474.9 -82.46 474.9 -84.09 476.27 C-84.75 476.27 -85.41 476.27 -86.09 476.27 C-86.09 476.93 -86.09 477.59 -86.09 478.27 C-87.46 479.9 -87.46 479.9 -89.09 481.27 C-89.75 481.27 -90.41 481.27 -91.09 481.27 C-91.09 481.93 -91.09 482.59 -91.09 483.27 C-94.55 486.27 -94.55 486.27 -97.09 486.27 C-97.09 486.93 -97.09 487.59 -97.09 488.27 C-107.04 495.09 -119.52 494.8 -131.09 493.27 C-137.67 491.59 -143.04 487.69 -148.09 483.27 C-148.09 482.61 -148.09 481.95 -148.09 481.27 C-148.73 481.01 -149.37 480.74 -150.03 480.46 C-152.09 479.27 -152.09 479.27 -153.09 476.27 C-153.75 475.94 -154.41 475.61 -155.09 475.27 C-157.09 474.27 -157.09 474.27 -158.09 471.27 C-158.75 470.94 -159.41 470.61 -160.09 470.27 C-162.09 469.27 -162.09 469.27 -163.09 466.27 C-163.75 465.94 -164.41 465.61 -165.09 465.27 C-167.09 464.27 -167.09 464.27 -168.09 461.27 C-168.75 460.94 -169.41 460.61 -170.09 460.27 C-172.09 459.27 -172.09 459.27 -173.09 456.27 C-175.82 455.17 -178.13 454.27 -181.09 454.27 C-181.09 454.93 -181.09 455.59 -181.09 456.27 C-182.66 457.82 -182.66 457.82 -184.78 459.59 C-188.04 462.36 -191.1 465.21 -194.09 468.27 C-196.64 470.83 -199.19 473.38 -201.78 475.9 C-205.12 479.17 -205.12 479.17 -206.12 483.54 C-204.58 487.63 -201.77 490.05 -198.65 493.04 C-198.01 493.67 -197.36 494.3 -196.7 494.95 C-194.65 496.96 -192.59 498.96 -190.53 500.96 C-188.46 502.97 -186.4 504.98 -184.34 507 C-183.06 508.26 -181.78 509.51 -180.49 510.75 C-178.98 512.22 -177.53 513.74 -176.09 515.27 C-176.09 515.93 -176.09 516.59 -176.09 517.27 C-175.43 517.27 -174.77 517.27 -174.09 517.27 C-173.29 518.62 -172.5 519.98 -171.71 521.34 C-171.27 522.09 -170.83 522.84 -170.38 523.62 C-165.74 533.17 -165.34 545.21 -168.71 555.27 C-170.79 560.2 -173.71 564.17 -177.09 568.27 C-177.75 569.26 -178.41 570.25 -179.09 571.27 C-179.75 571.27 -180.41 571.27 -181.09 571.27 C-181.09 571.93 -181.09 572.59 -181.09 573.27 C-182.46 574.9 -182.46 574.9 -184.09 576.27 C-184.75 576.27 -185.41 576.27 -186.09 576.27 C-186.09 576.93 -186.09 577.59 -186.09 578.27 C-187.46 579.9 -187.46 579.9 -189.09 581.27 C-189.75 581.27 -190.41 581.27 -191.09 581.27 C-191.09 581.93 -191.09 582.59 -191.09 583.27 C-192.46 584.9 -192.46 584.9 -194.09 586.27 C-194.75 586.27 -195.41 586.27 -196.09 586.27 C-196.09 586.93 -196.09 587.59 -196.09 588.27 C-197.46 589.9 -197.46 589.9 -199.09 591.27 C-199.75 591.27 -200.41 591.27 -201.09 591.27 C-201.09 591.93 -201.09 592.59 -201.09 593.27 C-202.46 594.9 -202.46 594.9 -204.09 596.27 C-204.75 596.27 -205.41 596.27 -206.09 596.27 C-206.09 596.93 -206.09 597.59 -206.09 598.27 C-207.96 600.08 -207.96 600.08 -210.53 602.15 C-211.35 602.83 -212.17 603.5 -213.02 604.2 C-220.79 609.45 -227.26 610.92 -236.59 610.77 C-237.57 610.79 -238.55 610.8 -239.56 610.82 C-254.69 610.74 -264.09 601.58 -274.26 591.36 C-275.58 590.05 -275.58 590.05 -276.92 588.71 C-279.31 586.33 -281.69 583.94 -284.07 581.56 C-286.57 579.05 -289.08 576.56 -291.58 574.06 C-295.77 569.87 -299.96 565.67 -304.15 561.48 C-308.99 556.62 -313.84 551.78 -318.69 546.94 C-322.87 542.77 -327.04 538.6 -331.2 534.43 C-333.69 531.94 -336.18 529.45 -338.67 526.97 C-341.44 524.21 -344.2 521.44 -346.96 518.67 C-348.2 517.43 -348.2 517.43 -349.47 516.17 C-350.21 515.42 -350.96 514.66 -351.73 513.89 C-352.38 513.24 -353.03 512.58 -353.71 511.91 C-355.09 510.27 -355.09 510.27 -355.09 508.27 C-355.75 508.27 -356.41 508.27 -357.09 508.27 C-358.27 506.8 -358.27 506.8 -359.53 504.77 C-360.14 503.8 -360.14 503.8 -360.77 502.8 C-364.25 496.12 -365.62 490.39 -365.53 482.84 C-365.52 482 -365.52 481.16 -365.51 480.3 C-365.35 474.18 -364.43 469.48 -361.09 464.27 C-360.34 462.92 -359.59 461.57 -358.84 460.21 C-358.26 459.24 -357.68 458.27 -357.09 457.27 C-356.43 457.27 -355.77 457.27 -355.09 457.27 C-354.82 456.63 -354.55 455.99 -354.28 455.34 C-353.09 453.27 -353.09 453.27 -350.09 452.27 C-349.76 451.61 -349.43 450.95 -349.09 450.27 C-348.09 448.27 -348.09 448.27 -345.09 447.27 C-344.76 446.61 -344.43 445.95 -344.09 445.27 C-343.09 443.27 -343.09 443.27 -340.09 442.27 C-339.76 441.61 -339.43 440.95 -339.09 440.27 C-338.09 438.27 -338.09 438.27 -335.09 437.27 C-334.76 436.61 -334.43 435.95 -334.09 435.27 C-333.09 433.27 -333.09 433.27 -330.09 432.27 C-329.76 431.61 -329.43 430.95 -329.09 430.27 C-328.09 428.27 -328.09 428.27 -325.09 427.27 C-325.4 422.01 -328.5 419.35 -332.09 415.88 C-332.69 415.29 -333.29 414.69 -333.91 414.08 C-335.81 412.2 -337.73 410.33 -339.65 408.46 C-340.95 407.18 -342.25 405.91 -343.54 404.63 C-346.71 401.5 -349.9 398.38 -353.09 395.27 C-358.45 397.96 -362.26 402.18 -366.42 406.38 C-367.26 407.22 -368.09 408.06 -368.95 408.92 C-371.27 411.23 -373.58 413.56 -375.88 415.88 C-378.38 418.39 -380.87 420.89 -383.37 423.39 C-387.7 427.72 -392.02 432.06 -396.34 436.4 C-402.59 442.69 -408.85 448.96 -415.11 455.24 C-425.28 465.42 -435.45 475.62 -445.61 485.81 C-446.22 486.42 -446.83 487.03 -447.46 487.66 C-454.24 494.46 -461.02 501.27 -467.8 508.07 C-470.26 510.54 -472.72 513.01 -475.18 515.48 C-476.09 516.39 -476.09 516.39 -477.01 517.32 C-487.13 527.48 -497.26 537.63 -507.39 547.77 C-513.63 554.03 -519.87 560.29 -526.11 566.56 C-530.38 570.85 -534.66 575.14 -538.94 579.43 C-541.41 581.9 -543.88 584.38 -546.34 586.86 C-549.01 589.55 -551.7 592.23 -554.38 594.91 C-555.15 595.69 -555.92 596.47 -556.72 597.28 C-566.55 607.05 -574.58 610.63 -588.4 610.65 C-589.51 610.67 -590.61 610.7 -591.74 610.72 C-607.73 610.78 -617.23 600.35 -628.04 589.64 C-629.31 588.37 -630.58 587.1 -631.85 585.83 C-633.78 583.9 -635.71 581.98 -637.65 580.07 C-649.51 568.27 -657.44 559.36 -657.53 542.09 C-657.56 541 -657.59 539.91 -657.63 538.79 C-657.73 523.92 -649.48 515.77 -639.6 505.69 C-635.42 501.46 -631.21 497.26 -627 493.05 C-625.45 491.5 -623.91 489.95 -622.36 488.4 C-619.13 485.17 -615.9 481.95 -612.67 478.72 C-608.53 474.58 -604.39 470.44 -600.25 466.3 C-597.06 463.11 -593.87 459.92 -590.68 456.73 C-589.15 455.2 -587.62 453.67 -586.1 452.14 C-583.97 450.02 -581.84 447.89 -579.71 445.77 C-578.77 444.82 -578.77 444.82 -577.81 443.85 C-577.23 443.28 -576.65 442.7 -576.05 442.1 C-575.55 441.6 -575.04 441.1 -574.53 440.58 C-570.28 436.71 -565.7 435.69 -560.09 435.27 C-553.6 436.17 -548.36 439.36 -544.09 444.27 C-541.13 449.34 -539.95 454.5 -541.09 460.27 C-543.57 466.65 -547.3 471.02 -552.17 475.73 C-552.87 476.42 -553.58 477.12 -554.3 477.84 C-555.82 479.34 -557.35 480.84 -558.88 482.33 C-561.29 484.69 -563.7 487.07 -566.1 489.44 C-572.06 495.34 -578.03 501.22 -584.02 507.09 C-589.08 512.06 -594.14 517.05 -599.18 522.05 C-601.56 524.39 -603.94 526.72 -606.33 529.05 C-607.77 530.48 -609.22 531.91 -610.66 533.34 C-611.33 533.98 -612 534.63 -612.69 535.3 C-613.29 535.9 -613.89 536.49 -614.5 537.11 C-615.29 537.89 -615.29 537.89 -616.1 538.68 C-617.31 540.27 -617.31 540.27 -616.88 542.41 C-616.25 544.47 -616.25 544.47 -614.09 545.27 C-614.09 545.93 -614.09 546.59 -614.09 547.27 C-613.43 547.27 -612.77 547.27 -612.09 547.27 C-610.46 548.65 -610.46 548.65 -609.09 550.27 C-609.09 550.93 -609.09 551.59 -609.09 552.27 C-608.43 552.27 -607.77 552.27 -607.09 552.27 C-605.46 553.65 -605.46 553.65 -604.09 555.27 C-604.09 555.93 -604.09 556.59 -604.09 557.27 C-603.43 557.27 -602.77 557.27 -602.09 557.27 C-600.46 558.65 -600.46 558.65 -599.09 560.27 C-599.09 560.93 -599.09 561.59 -599.09 562.27 C-598.43 562.27 -597.77 562.27 -597.09 562.27 C-595.46 563.65 -595.46 563.65 -594.09 565.27 C-594.09 565.93 -594.09 566.59 -594.09 567.27 C-593.43 567.27 -592.77 567.27 -592.09 567.27 C-590.46 568.77 -590.46 568.77 -589.09 570.27 C-585.74 568.82 -583.54 566.98 -580.97 564.4 C-580.15 563.58 -579.33 562.77 -578.49 561.93 C-577.59 561.03 -576.7 560.13 -575.77 559.2 C-574.81 558.23 -573.84 557.26 -572.87 556.3 C-570.2 553.63 -567.53 550.95 -564.86 548.27 C-561.97 545.37 -559.06 542.46 -556.16 539.56 C-551.07 534.47 -545.98 529.38 -540.9 524.28 C-533.34 516.7 -525.77 509.13 -518.21 501.56 C-505.48 488.82 -492.75 476.08 -480.03 463.33 C-462.66 445.93 -445.28 428.54 -427.9 411.14 C-419.8 403.05 -411.71 394.95 -403.62 386.85 C-402.81 386.04 -402 385.23 -401.17 384.39 C-381.87 365.09 -362.58 345.78 -343.3 326.47 C-342.03 325.2 -342.03 325.2 -340.74 323.91 C-321.04 304.18 -301.34 284.46 -281.64 264.74 C-274.81 257.9 -267.98 251.05 -261.14 244.21 C-259.88 242.94 -259.88 242.94 -258.59 241.65 C-239.34 222.38 -220.09 203.1 -200.83 183.83 C-200.02 183.02 -199.22 182.22 -198.38 181.38 C-190.31 173.3 -182.23 165.22 -174.16 157.14 C-170.18 153.17 -166.21 149.19 -162.24 145.22 C-161.46 144.43 -160.67 143.65 -159.87 142.84 C-147.27 130.24 -134.67 117.62 -122.08 105 C-109.43 92.33 -96.78 79.66 -84.12 67 C-76.59 59.47 -69.07 51.94 -61.56 44.4 C-56.54 39.37 -51.52 34.35 -46.49 29.33 C-43.62 26.46 -40.76 23.6 -37.9 20.72 C-35.3 18.11 -32.7 15.51 -30.09 12.91 C-28.71 11.53 -27.33 10.14 -25.96 8.75 C-18.46 1.31 -10.88 -3.78 0 0 Z M-183.01 222.05 C-183.57 222.61 -184.13 223.17 -184.71 223.75 C-185.3 224.34 -185.89 224.93 -186.5 225.54 C-188.5 227.53 -190.5 229.52 -192.5 231.52 C-193.92 232.94 -195.35 234.36 -196.78 235.79 C-200.67 239.66 -204.55 243.54 -208.44 247.42 C-210.86 249.84 -213.29 252.26 -215.71 254.68 C-223.29 262.25 -230.87 269.82 -238.44 277.39 C-247.2 286.14 -255.97 294.89 -264.74 303.63 C-271.51 310.38 -278.27 317.13 -285.03 323.89 C-289.07 327.93 -293.11 331.97 -297.16 336 C-300.97 339.79 -304.77 343.59 -308.57 347.39 C-309.96 348.79 -311.36 350.19 -312.76 351.58 C-314.67 353.47 -316.57 355.38 -318.47 357.29 C-319.31 358.12 -319.31 358.12 -320.17 358.96 C-323.88 362.52 -323.88 362.52 -325.09 367.27 C-323.2 369.67 -321.36 371.7 -319.2 373.82 C-318.59 374.44 -317.98 375.06 -317.34 375.7 C-316.04 377 -314.74 378.3 -313.42 379.59 C-311.41 381.58 -309.43 383.59 -307.44 385.6 C-306.18 386.87 -304.91 388.13 -303.64 389.39 C-303.05 389.99 -302.45 390.6 -301.84 391.22 C-299.98 393.08 -299.98 393.08 -297.09 395.27 C-292.8 394.83 -290.95 392.35 -288.09 389.27 C-241.42 342.61 -194.76 295.94 -148.09 249.27 C-149.08 247.29 -149.08 247.29 -150.09 245.27 C-150.75 245.27 -151.41 245.27 -152.09 245.27 C-152.09 244.61 -152.09 243.95 -152.09 243.27 C-153.42 241.61 -153.42 241.61 -155.09 240.27 C-155.75 240.27 -156.41 240.27 -157.09 240.27 C-157.09 239.61 -157.09 238.95 -157.09 238.27 C-158.42 236.61 -158.42 236.61 -160.09 235.27 C-160.75 235.27 -161.41 235.27 -162.09 235.27 C-162.09 234.61 -162.09 233.95 -162.09 233.27 C-163.42 231.61 -163.42 231.61 -165.09 230.27 C-165.75 230.27 -166.41 230.27 -167.09 230.27 C-167.09 229.61 -167.09 228.95 -167.09 228.27 C-168.42 226.61 -168.42 226.61 -170.09 225.27 C-170.75 225.27 -171.41 225.27 -172.09 225.27 C-172.09 224.61 -172.09 223.95 -172.09 223.27 C-177.66 217.67 -177.66 217.67 -183.01 222.05 Z M-61.09 218.27 C-63.13 219.89 -65.13 221.56 -67.09 223.27 C-67.09 223.93 -67.09 224.59 -67.09 225.27 C-67.73 225.54 -68.37 225.81 -69.03 226.09 C-71.42 227.16 -71.42 227.16 -72.09 230.27 C-73.42 230.94 -74.76 231.61 -76.09 232.27 C-76.42 233.26 -76.75 234.25 -77.09 235.27 C-78.42 235.94 -79.76 236.61 -81.09 237.27 C-81.42 238.26 -81.75 239.25 -82.09 240.27 C-83.42 240.94 -84.76 241.61 -86.09 242.27 C-86.42 243.26 -86.75 244.25 -87.09 245.27 C-87.65 245.54 -88.2 245.81 -88.78 246.09 C-92.13 247.81 -94.71 250.36 -97.09 253.27 C-97.09 253.93 -97.09 254.59 -97.09 255.27 C-97.73 255.54 -98.37 255.81 -99.03 256.09 C-101.42 257.16 -101.42 257.16 -102.09 260.27 C-103.42 260.94 -104.76 261.61 -106.09 262.27 C-106.42 263.26 -106.75 264.25 -107.09 265.27 C-108.42 265.94 -109.76 266.61 -111.09 267.27 C-111.42 268.26 -111.75 269.25 -112.09 270.27 C-113.42 270.94 -114.76 271.61 -116.09 272.27 C-116.42 273.26 -116.75 274.25 -117.09 275.27 C-117.65 275.54 -118.2 275.81 -118.78 276.09 C-122.13 277.81 -124.71 280.36 -127.09 283.27 C-127.09 283.93 -127.09 284.59 -127.09 285.27 C-127.89 285.58 -127.89 285.58 -128.71 285.9 C-132.01 287.81 -134.68 290.32 -137.09 293.27 C-137.09 293.93 -137.09 294.59 -137.09 295.27 C-137.65 295.51 -138.2 295.74 -138.78 295.98 C-141.69 297.61 -143.71 299.64 -146.07 301.99 C-147.01 302.92 -147.94 303.86 -148.91 304.82 C-149.39 305.3 -149.87 305.79 -150.36 306.29 C-151.84 307.78 -153.33 309.25 -154.82 310.73 C-156.21 312.13 -156.21 312.13 -157.64 313.55 C-158.49 314.41 -159.35 315.27 -160.23 316.15 C-162.31 318.05 -162.31 318.05 -162.09 320.27 C-162.62 320.48 -163.16 320.69 -163.71 320.91 C-167.01 322.8 -169.51 325.4 -172.17 328.09 C-172.74 328.66 -173.31 329.22 -173.9 329.81 C-175.1 331.01 -176.3 332.22 -177.5 333.42 C-179.34 335.27 -181.19 337.11 -183.04 338.95 C-184.21 340.12 -185.38 341.29 -186.54 342.46 C-187.38 343.29 -187.38 343.29 -188.23 344.13 C-191.16 346.72 -191.16 346.72 -192.09 350.27 C-192.62 350.48 -193.16 350.69 -193.71 350.91 C-197.01 352.8 -199.51 355.4 -202.17 358.09 C-202.74 358.66 -203.31 359.22 -203.9 359.81 C-205.1 361.01 -206.3 362.22 -207.5 363.42 C-209.34 365.27 -211.19 367.11 -213.04 368.95 C-214.21 370.12 -215.38 371.29 -216.54 372.46 C-217.38 373.29 -217.38 373.29 -218.23 374.13 C-221.16 376.72 -221.16 376.72 -222.09 380.27 C-222.63 380.48 -223.16 380.69 -223.71 380.9 C-227.01 382.81 -229.68 385.32 -232.09 388.27 C-232.09 388.93 -232.09 389.59 -232.09 390.27 C-232.63 390.49 -233.17 390.71 -233.73 390.93 C-236.91 392.74 -239.3 395.19 -241.84 397.77 C-242.35 398.27 -242.85 398.77 -243.38 399.29 C-246.22 401.8 -246.22 401.8 -247.09 405.27 C-247.65 405.51 -248.2 405.74 -248.78 405.98 C-251.69 407.61 -253.71 409.64 -256.07 411.99 C-257.01 412.92 -257.94 413.86 -258.91 414.82 C-259.39 415.3 -259.87 415.79 -260.36 416.29 C-261.84 417.78 -263.33 419.25 -264.82 420.73 C-265.75 421.66 -266.68 422.59 -267.64 423.55 C-268.49 424.41 -269.35 425.27 -270.23 426.15 C-272.31 428.05 -272.31 428.05 -272.09 430.27 C-273.05 430.68 -273.05 430.68 -274.03 431.09 C-276.42 432.16 -276.42 432.16 -277.09 435.27 C-277.93 435.68 -277.93 435.68 -278.78 436.09 C-282.13 437.81 -284.71 440.36 -287.09 443.27 C-287.09 443.93 -287.09 444.59 -287.09 445.27 C-287.97 445.67 -287.97 445.67 -288.87 446.07 C-291.17 447.32 -292.71 448.62 -294.57 450.45 C-295.23 451.09 -295.89 451.74 -296.57 452.4 C-297.28 453.1 -297.98 453.79 -298.7 454.51 C-299.79 455.59 -299.79 455.59 -300.9 456.69 C-302.43 458.2 -303.96 459.73 -305.49 461.25 C-307.83 463.58 -310.19 465.89 -312.55 468.2 C-314.04 469.68 -315.53 471.16 -317.01 472.64 C-317.72 473.33 -318.43 474.02 -319.16 474.73 C-319.81 475.38 -320.46 476.03 -321.12 476.71 C-321.99 477.56 -321.99 477.56 -322.86 478.43 C-324.51 480.91 -324.4 482.34 -324.09 485.27 C-322.81 487.31 -322.81 487.31 -320.9 489.11 C-319.84 490.19 -319.84 490.19 -318.76 491.3 C-317.58 492.47 -317.58 492.47 -316.38 493.66 C-315.56 494.49 -314.74 495.32 -313.9 496.18 C-311.18 498.93 -308.45 501.66 -305.71 504.39 C-304.29 505.81 -302.88 507.23 -301.47 508.65 C-297.02 513.12 -292.57 517.57 -288.1 522.02 C-283.5 526.61 -278.91 531.22 -274.34 535.84 C-270.41 539.81 -266.47 543.76 -262.52 547.7 C-260.16 550.06 -257.81 552.42 -255.47 554.79 C-252.85 557.43 -250.22 560.05 -247.57 562.66 C-246.8 563.45 -246.03 564.24 -245.23 565.06 C-241.14 569.32 -241.14 569.32 -235.56 570.25 C-234.34 569.77 -234.34 569.77 -233.09 569.27 C-233.09 568.61 -233.09 567.95 -233.09 567.27 C-232.1 566.94 -231.11 566.61 -230.09 566.27 C-230.09 565.61 -230.09 564.95 -230.09 564.27 C-229.43 564.27 -228.77 564.27 -228.09 564.27 C-228.09 563.61 -228.09 562.95 -228.09 562.27 C-227.1 561.94 -226.11 561.61 -225.09 561.27 C-225.09 560.61 -225.09 559.95 -225.09 559.27 C-224.43 559.27 -223.77 559.27 -223.09 559.27 C-223.09 558.61 -223.09 557.95 -223.09 557.27 C-222.1 556.94 -221.11 556.61 -220.09 556.27 C-220.09 555.61 -220.09 554.95 -220.09 554.27 C-219.43 554.27 -218.77 554.27 -218.09 554.27 C-218.09 553.61 -218.09 552.95 -218.09 552.27 C-217.1 551.94 -216.11 551.61 -215.09 551.27 C-215.09 550.61 -215.09 549.95 -215.09 549.27 C-214.43 549.27 -213.77 549.27 -213.09 549.27 C-213.09 548.61 -213.09 547.95 -213.09 547.27 C-212.1 546.94 -211.11 546.61 -210.09 546.27 C-210.09 545.61 -210.09 544.95 -210.09 544.27 C-209.43 544.27 -208.77 544.27 -208.09 544.27 C-207.76 543.28 -207.43 542.29 -207.09 541.27 C-208.11 539.53 -208.11 539.53 -209.79 537.83 C-210.76 536.77 -210.76 536.77 -211.75 535.69 C-216.42 530.86 -221.18 526.12 -225.96 521.4 C-228.05 519.34 -230.13 517.28 -232.21 515.22 C-233.12 514.32 -234.03 513.41 -234.98 512.48 C-237.09 510.27 -237.09 510.27 -238.09 508.27 C-238.75 508.27 -239.41 508.27 -240.09 508.27 C-240.34 507.63 -240.58 506.99 -240.84 506.34 C-242.2 503 -243.68 499.73 -245.19 496.46 C-248.83 487.63 -248.12 476.25 -245.02 467.36 C-243.69 464.39 -242 461.91 -240.09 459.27 C-240.09 458.61 -240.09 457.95 -240.09 457.27 C-239.43 457.27 -238.77 457.27 -238.09 457.27 C-236.42 455.94 -236.42 455.94 -235.09 454.27 C-235.09 453.61 -235.09 452.95 -235.09 452.27 C-234.43 452.27 -233.77 452.27 -233.09 452.27 C-231.42 450.94 -231.42 450.94 -230.09 449.27 C-230.09 448.61 -230.09 447.95 -230.09 447.27 C-229.43 447.27 -228.77 447.27 -228.09 447.27 C-226.42 445.94 -226.42 445.94 -225.09 444.27 C-225.09 443.61 -225.09 442.95 -225.09 442.27 C-224.43 442.27 -223.77 442.27 -223.09 442.27 C-221.42 440.94 -221.42 440.94 -220.09 439.27 C-220.09 438.61 -220.09 437.95 -220.09 437.27 C-219.43 437.27 -218.77 437.27 -218.09 437.27 C-216.42 435.94 -216.42 435.94 -215.09 434.27 C-215.09 433.61 -215.09 432.95 -215.09 432.27 C-214.43 432.27 -213.77 432.27 -213.09 432.27 C-211.42 430.94 -211.42 430.94 -210.09 429.27 C-210.09 428.61 -210.09 427.95 -210.09 427.27 C-209.43 427.27 -208.77 427.27 -208.09 427.27 C-206.42 425.94 -206.42 425.94 -205.09 424.27 C-205.09 423.61 -205.09 422.95 -205.09 422.27 C-204.5 421.98 -203.91 421.69 -203.3 421.39 C-201.39 420.43 -199.52 419.39 -197.65 418.34 C-189.6 414.33 -180.91 412.36 -172.09 414.27 C-171.35 414.4 -170.61 414.53 -169.85 414.66 C-164.52 415.64 -160.7 417.45 -156.09 420.27 C-155.43 420.27 -154.77 420.27 -154.09 420.27 C-154.09 420.93 -154.09 421.59 -154.09 422.27 C-153.29 422.54 -152.48 422.81 -151.65 423.09 C-150.81 423.48 -149.96 423.87 -149.09 424.27 C-148.76 425.26 -148.43 426.25 -148.09 427.27 C-147.43 427.27 -146.77 427.27 -146.09 427.27 C-146.09 427.93 -146.09 428.59 -146.09 429.27 C-145.43 429.27 -144.77 429.27 -144.09 429.27 C-143.76 430.26 -143.43 431.25 -143.09 432.27 C-142.43 432.27 -141.77 432.27 -141.09 432.27 C-141.09 432.93 -141.09 433.59 -141.09 434.27 C-140.43 434.27 -139.77 434.27 -139.09 434.27 C-138.76 435.26 -138.43 436.25 -138.09 437.27 C-137.43 437.27 -136.77 437.27 -136.09 437.27 C-136.09 437.93 -136.09 438.59 -136.09 439.27 C-135.43 439.27 -134.77 439.27 -134.09 439.27 C-133.76 440.26 -133.43 441.25 -133.09 442.27 C-132.43 442.27 -131.77 442.27 -131.09 442.27 C-131.09 442.93 -131.09 443.59 -131.09 444.27 C-130.43 444.27 -129.77 444.27 -129.09 444.27 C-128.76 445.26 -128.43 446.25 -128.09 447.27 C-127.43 447.27 -126.77 447.27 -126.09 447.27 C-126.09 447.93 -126.09 448.59 -126.09 449.27 C-125.43 449.27 -124.77 449.27 -124.09 449.27 C-123.76 450.26 -123.43 451.25 -123.09 452.27 C-122.43 452.27 -121.77 452.27 -121.09 452.27 C-121.09 452.93 -121.09 453.59 -121.09 454.27 C-120.1 454.27 -119.11 454.27 -118.09 454.27 C-118.09 453.61 -118.09 452.95 -118.09 452.27 C-117.1 451.94 -116.11 451.61 -115.09 451.27 C-115.09 450.61 -115.09 449.95 -115.09 449.27 C-114.43 449.27 -113.77 449.27 -113.09 449.27 C-113.09 448.61 -113.09 447.95 -113.09 447.27 C-112.1 446.94 -111.11 446.61 -110.09 446.27 C-110.09 445.61 -110.09 444.95 -110.09 444.27 C-109.43 444.27 -108.77 444.27 -108.09 444.27 C-108.09 443.61 -108.09 442.95 -108.09 442.27 C-107.1 441.94 -106.11 441.61 -105.09 441.27 C-105.09 440.61 -105.09 439.95 -105.09 439.27 C-104.43 439.27 -103.77 439.27 -103.09 439.27 C-103.09 438.61 -103.09 437.95 -103.09 437.27 C-102.1 436.94 -101.11 436.61 -100.09 436.27 C-100.09 435.61 -100.09 434.95 -100.09 434.27 C-99.43 434.27 -98.77 434.27 -98.09 434.27 C-98.09 433.61 -98.09 432.95 -98.09 432.27 C-97.1 431.94 -96.11 431.61 -95.09 431.27 C-95.09 430.61 -95.09 429.95 -95.09 429.27 C-94.43 429.27 -93.77 429.27 -93.09 429.27 C-93.09 428.61 -93.09 427.95 -93.09 427.27 C-92.43 427.27 -91.77 427.27 -91.09 427.27 C-90.36 425.43 -90.36 425.43 -90.09 423.27 C-92.05 420.89 -93.97 418.86 -96.2 416.75 C-96.83 416.13 -97.47 415.5 -98.12 414.86 C-100.16 412.86 -102.22 410.88 -104.28 408.9 C-106.32 406.92 -108.35 404.94 -110.38 402.96 C-111.64 401.72 -112.91 400.49 -114.19 399.27 C-116.93 396.61 -119.34 394.08 -121.39 390.85 C-121.95 390 -122.51 389.15 -123.09 388.27 C-123.75 388.27 -124.41 388.27 -125.09 388.27 C-125.19 387.76 -125.3 387.24 -125.4 386.71 C-126.05 384.12 -126.05 384.12 -127.6 381.32 C-129.73 376.37 -129.66 371.41 -129.65 366.09 C-129.65 365.07 -129.65 364.05 -129.66 363 C-129.48 354.64 -127.76 349.25 -123.09 342.27 C-122.76 341.28 -122.43 340.29 -122.09 339.27 C-121.43 339.27 -120.77 339.27 -120.09 339.27 C-120.09 338.61 -120.09 337.95 -120.09 337.27 C-119.43 337.27 -118.77 337.27 -118.09 337.27 C-116.42 335.94 -116.42 335.94 -115.09 334.27 C-115.09 333.61 -115.09 332.95 -115.09 332.27 C-114.43 332.27 -113.77 332.27 -113.09 332.27 C-111.42 330.94 -111.42 330.94 -110.09 329.27 C-110.09 328.61 -110.09 327.95 -110.09 327.27 C-109.43 327.27 -108.77 327.27 -108.09 327.27 C-106.42 325.94 -106.42 325.94 -105.09 324.27 C-105.09 323.61 -105.09 322.95 -105.09 322.27 C-104.43 322.27 -103.77 322.27 -103.09 322.27 C-101.42 320.94 -101.42 320.94 -100.09 319.27 C-100.09 318.61 -100.09 317.95 -100.09 317.27 C-99.43 317.27 -98.77 317.27 -98.09 317.27 C-96.42 315.94 -96.42 315.94 -95.09 314.27 C-95.09 313.61 -95.09 312.95 -95.09 312.27 C-94.43 312.27 -93.77 312.27 -93.09 312.27 C-91.42 310.94 -91.42 310.94 -90.09 309.27 C-90.09 308.61 -90.09 307.95 -90.09 307.27 C-89.43 307.27 -88.77 307.27 -88.09 307.27 C-88.09 306.61 -88.09 305.95 -88.09 305.27 C-87.52 305 -86.96 304.72 -86.38 304.43 C-84.87 303.67 -83.37 302.88 -81.9 302.05 C-73.09 297.3 -64.96 295.46 -55.09 297.27 C-53.89 297.4 -52.7 297.52 -51.46 297.65 C-46.51 298.57 -42.99 300.67 -38.84 303.46 C-36.36 305.46 -36.36 305.46 -34.09 305.27 C-34.09 305.93 -34.09 306.59 -34.09 307.27 C-32.47 308.91 -32.47 308.91 -30.4 310.59 C-27.14 313.36 -24.08 316.21 -21.09 319.27 C-19.85 320.51 -19.85 320.51 -18.59 321.77 C-16.09 324.27 -13.59 326.77 -11.09 329.27 C-10.2 330.14 -9.32 331.01 -8.4 331.9 C-6.09 334.27 -6.09 334.27 -4.09 337.27 C-2.77 336.94 -1.45 336.61 -0.09 336.27 C-0.09 335.61 -0.09 334.95 -0.09 334.27 C0.57 334.27 1.23 334.27 1.91 334.27 C1.91 333.61 1.91 332.95 1.91 332.27 C3.4 331.78 3.4 331.78 4.91 331.27 C4.91 330.61 4.91 329.95 4.91 329.27 C5.57 329.27 6.23 329.27 6.91 329.27 C6.91 328.61 6.91 327.95 6.91 327.27 C8.4 326.78 8.4 326.78 9.91 326.27 C9.91 325.61 9.91 324.95 9.91 324.27 C10.57 324.27 11.23 324.27 11.91 324.27 C11.91 323.61 11.91 322.95 11.91 322.27 C13.4 321.78 13.4 321.78 14.91 321.27 C14.91 320.61 14.91 319.95 14.91 319.27 C15.57 319.27 16.23 319.27 16.91 319.27 C16.91 318.61 16.91 317.95 16.91 317.27 C18.4 316.78 18.4 316.78 19.91 316.27 C19.91 315.61 19.91 314.95 19.91 314.27 C20.57 314.27 21.23 314.27 21.91 314.27 C21.91 313.61 21.91 312.95 21.91 312.27 C23.4 311.78 23.4 311.78 24.91 311.27 C24.91 310.61 24.91 309.95 24.91 309.27 C25.57 309.27 26.23 309.27 26.91 309.27 C26.91 307.95 26.91 306.63 26.91 305.27 C26.25 305.27 25.59 305.27 24.91 305.27 C24.91 304.61 24.91 303.95 24.91 303.27 C24.25 303.27 23.59 303.27 22.91 303.27 C22.58 302.28 22.25 301.29 21.91 300.27 C21.25 300.27 20.59 300.27 19.91 300.27 C19.91 299.61 19.91 298.95 19.91 298.27 C19.25 298.27 18.59 298.27 17.91 298.27 C17.58 297.28 17.25 296.29 16.91 295.27 C16.25 295.27 15.59 295.27 14.91 295.27 C14.91 294.61 14.91 293.95 14.91 293.27 C14.25 293.27 13.59 293.27 12.91 293.27 C12.58 292.28 12.25 291.29 11.91 290.27 C11.25 290.27 10.59 290.27 9.91 290.27 C9.91 289.61 9.91 288.95 9.91 288.27 C9.25 288.27 8.59 288.27 7.91 288.27 C7.58 287.28 7.25 286.29 6.91 285.27 C6.25 285.27 5.59 285.27 4.91 285.27 C4.91 284.61 4.91 283.95 4.91 283.27 C4.25 283.27 3.59 283.27 2.91 283.27 C2.58 282.28 2.25 281.29 1.91 280.27 C1.25 280.27 0.59 280.27 -0.09 280.27 C-0.09 279.61 -0.09 278.95 -0.09 278.27 C-0.75 278.27 -1.41 278.27 -2.09 278.27 C-2.42 277.28 -2.75 276.29 -3.09 275.27 C-3.75 275.27 -4.41 275.27 -5.09 275.27 C-5.09 274.61 -5.09 273.95 -5.09 273.27 C-5.75 273.27 -6.41 273.27 -7.09 273.27 C-7.42 272.28 -7.75 271.29 -8.09 270.27 C-8.75 270.27 -9.41 270.27 -10.09 270.27 C-10.09 269.61 -10.09 268.95 -10.09 268.27 C-10.75 268.27 -11.41 268.27 -12.09 268.27 C-12.42 267.28 -12.75 266.29 -13.09 265.27 C-13.75 265.27 -14.41 265.27 -15.09 265.27 C-15.09 264.61 -15.09 263.95 -15.09 263.27 C-15.75 263.27 -16.41 263.27 -17.09 263.27 C-17.42 262.28 -17.75 261.29 -18.09 260.27 C-18.75 260.27 -19.41 260.27 -20.09 260.27 C-20.09 259.61 -20.09 258.95 -20.09 258.27 C-20.75 258.27 -21.41 258.27 -22.09 258.27 C-22.42 257.28 -22.75 256.29 -23.09 255.27 C-23.75 255.27 -24.41 255.27 -25.09 255.27 C-25.09 254.61 -25.09 253.95 -25.09 253.27 C-25.75 253.27 -26.41 253.27 -27.09 253.27 C-27.42 252.28 -27.75 251.29 -28.09 250.27 C-28.75 250.27 -29.41 250.27 -30.09 250.27 C-30.09 249.61 -30.09 248.95 -30.09 248.27 C-30.75 248.27 -31.41 248.27 -32.09 248.27 C-32.42 247.28 -32.75 246.29 -33.09 245.27 C-33.75 245.27 -34.41 245.27 -35.09 245.27 C-35.09 244.61 -35.09 243.95 -35.09 243.27 C-35.75 243.27 -36.41 243.27 -37.09 243.27 C-37.42 242.28 -37.75 241.29 -38.09 240.27 C-38.75 240.27 -39.41 240.27 -40.09 240.27 C-40.09 239.61 -40.09 238.95 -40.09 238.27 C-40.75 238.27 -41.41 238.27 -42.09 238.27 C-42.42 237.28 -42.75 236.29 -43.09 235.27 C-43.75 235.27 -44.41 235.27 -45.09 235.27 C-45.09 234.61 -45.09 233.95 -45.09 233.27 C-45.75 233.27 -46.41 233.27 -47.09 233.27 C-47.42 232.28 -47.75 231.29 -48.09 230.27 C-48.75 230.27 -49.41 230.27 -50.09 230.27 C-50.09 229.61 -50.09 228.95 -50.09 228.27 C-50.75 228.27 -51.41 228.27 -52.09 228.27 C-52.42 227.28 -52.75 226.29 -53.09 225.27 C-53.75 225.27 -54.41 225.27 -55.09 225.27 C-55.09 224.61 -55.09 223.95 -55.09 223.27 C-55.75 223.27 -56.41 223.27 -57.09 223.27 C-57.42 222.28 -57.75 221.29 -58.09 220.27 C-58.75 220.27 -59.41 220.27 -60.09 220.27 C-60.42 219.61 -60.75 218.95 -61.09 218.27 Z " fill="#000000" transform="translate(657.08984375,669.7265625)"/>
<path d="M0 0 C1.26 0 2.52 0.01 3.81 0.01 C16.96 0.24 29.32 2.39 41.02 8.52 C42.81 9.43 44.66 10.22 46.5 11 C50.2 12.62 53.43 14.45 56.88 16.56 C57.46 16.91 58.05 17.27 58.66 17.63 C60.12 18.53 61.54 19.51 62.94 20.5 C62.94 21.16 62.94 21.82 62.94 22.5 C63.51 22.75 64.07 23.01 64.66 23.27 C71.08 26.75 76.63 32.66 80.94 38.5 C80.94 39.16 80.94 39.82 80.94 40.5 C81.6 40.5 82.26 40.5 82.94 40.5 C84.67 42.91 86.26 45.29 87.81 47.81 C88.49 48.91 88.49 48.91 89.18 50.02 C92.59 55.65 95.01 61.21 96.94 67.5 C97.45 68.79 97.97 70.09 98.5 71.38 C102.27 81.58 103.49 91.74 103.44 102.56 C103.43 104.45 103.43 104.45 103.43 106.37 C103.2 119.52 101.06 131.9 94.91 143.59 C94.02 145.34 93.27 147.16 92.54 148.98 C90.59 153.27 88.09 156.92 85.38 160.75 C84.39 162.15 83.41 163.55 82.43 164.95 C82 165.56 81.57 166.17 81.13 166.8 C80.04 168.35 78.99 169.93 77.94 171.5 C77.28 171.5 76.62 171.5 75.94 171.5 C75.61 172.49 75.28 173.48 74.94 174.5 C74.28 174.5 73.62 174.5 72.94 174.5 C72.94 175.16 72.94 175.82 72.94 176.5 C72.28 176.5 71.62 176.5 70.94 176.5 C70.61 177.49 70.28 178.48 69.94 179.5 C69.28 179.5 68.62 179.5 67.94 179.5 C67.94 180.16 67.94 180.82 67.94 181.5 C66 183.16 64.07 184.65 62 186.12 C61.38 186.57 60.77 187.01 60.13 187.46 C45.1 197.84 27.2 204.62 8.94 205.5 C7.62 205.58 7.62 205.58 6.27 205.66 C-0.65 205.9 -4.72 204.49 -10.69 200.94 C-15.78 195.71 -18.06 188.79 -20.18 181.93 C-21.67 177.84 -23.74 174.05 -25.76 170.2 C-26.86 167.92 -27.58 165.97 -28.06 163.5 C-28.72 163.5 -29.38 163.5 -30.06 163.5 C-33.06 159.12 -33.06 159.12 -33.06 156.5 C-33.72 156.5 -34.38 156.5 -35.06 156.5 C-36.47 154.81 -36.47 154.81 -38.12 152.5 C-42.13 147.18 -47.01 141.52 -53.06 138.5 C-53.06 137.84 -53.06 137.18 -53.06 136.5 C-53.72 136.27 -54.38 136.05 -55.06 135.81 C-57.52 134.74 -59.51 133.63 -61.75 132.19 C-68.08 128.16 -74.61 124.94 -81.69 122.44 C-90.35 119.35 -96.36 116.84 -101.06 108.5 C-106.14 93.27 -99.38 72.13 -92.69 58.19 C-82.42 39 -82.42 39 -75.06 32.5 C-74.4 32.5 -73.74 32.5 -73.06 32.5 C-73.06 31.84 -73.06 31.18 -73.06 30.5 C-72.4 30.5 -71.74 30.5 -71.06 30.5 C-70.73 29.51 -70.4 28.52 -70.06 27.5 C-69.4 27.5 -68.74 27.5 -68.06 27.5 C-68.06 26.84 -68.06 26.18 -68.06 25.5 C-66.33 24.05 -64.52 22.69 -62.69 21.38 C-61.69 20.65 -60.69 19.93 -59.66 19.18 C-57.06 17.5 -57.06 17.5 -55.06 17.5 C-55.06 16.84 -55.06 16.18 -55.06 15.5 C-49.45 12.12 -43.87 9.54 -37.68 7.4 C-35.48 6.64 -33.34 5.81 -31.19 4.94 C-20.98 1.17 -10.83 -0.06 0 0 Z M-37.06 51.5 C-37.06 52.16 -37.06 52.82 -37.06 53.5 C-37.62 53.73 -38.18 53.95 -38.75 54.19 C-41.75 55.89 -43.71 57.98 -46.06 60.5 C-46.53 60.97 -46.99 61.44 -47.47 61.93 C-54.1 69.03 -59.12 77.78 -60.06 87.5 C-57.22 89.88 -54.36 91.24 -50.96 92.67 C-41.72 96.73 -33.72 102.2 -26.17 108.81 C-24.25 110.71 -24.25 110.71 -22.06 110.5 C-22.06 111.16 -22.06 111.82 -22.06 112.5 C-20.44 114.1 -20.44 114.1 -18.38 115.75 C-15.71 118 -13.35 120.2 -11.19 122.94 C-10.49 123.78 -9.79 124.63 -9.06 125.5 C-8.4 125.5 -7.74 125.5 -7.06 125.5 C-6.81 126.06 -6.55 126.62 -6.29 127.2 C-4.91 129.79 -3.28 131.98 -1.5 134.31 C1.82 138.83 4.86 143.45 7.75 148.25 C8.12 148.86 8.5 149.48 8.88 150.11 C10.68 153.14 12.22 156.1 13.51 159.39 C13.98 160.42 14.45 161.44 14.94 162.5 C20.29 164.28 24.91 161.47 29.81 159.12 C37.78 154.81 44.11 149.42 49.94 142.5 C49.94 141.84 49.94 141.18 49.94 140.5 C50.6 140.5 51.26 140.5 51.94 140.5 C61.47 127.36 65.32 111.5 62.94 95.5 C62.88 94.43 62.88 94.43 62.82 93.34 C62.11 81.59 56.28 70.5 48.94 61.5 C48.28 61.5 47.62 61.5 46.94 61.5 C46.94 60.84 46.94 60.18 46.94 59.5 C45.6 57.83 45.6 57.83 43.94 56.5 C43.28 56.5 42.62 56.5 41.94 56.5 C41.94 55.84 41.94 55.18 41.94 54.5 C19.47 36.16 -13.34 34.29 -37.06 51.5 Z " fill="#000000" transform="translate(1095.0625,81.5)"/>
<path d="M0 0 C0.99 0.5 0.99 0.5 2 1 C2 1.66 2 2.32 2 3 C2.55 3.09 3.1 3.17 3.66 3.26 C6.74 4.23 8.85 5.88 11.44 7.81 C12.36 8.5 13.29 9.19 14.25 9.89 C15.15 10.59 16.06 11.28 17 12 C18.41 13.06 18.41 13.06 19.85 14.14 C20.56 14.75 21.27 15.37 22 16 C22 16.66 22 17.32 22 18 C22.66 18 23.32 18 24 18 C25.95 20.12 25.95 20.12 28.12 22.88 C29.21 24.23 29.21 24.23 30.32 25.62 C32 28 32 28 32 30 C32.66 30 33.32 30 34 30 C36.26 33.17 38.08 36.62 40 40 C40.46 40.76 40.92 41.53 41.4 42.32 C44.17 47.01 45.94 51.54 47.38 56.79 C47.98 59.1 47.98 59.1 49.06 61.62 C51.98 69.03 52.42 76.12 52.5 84 C52.54 85.04 52.58 86.08 52.62 87.16 C52.69 93.58 51.92 97.56 47.63 102.45 C43.97 105.94 40.22 107.39 35.44 108.81 C29.79 110.61 24.71 113.03 19.5 115.83 C17 117 17 117 14 117 C14 117.66 14 118.32 14 119 C12.95 119.58 11.9 120.16 10.81 120.75 C8.38 122.13 6.39 123.49 4.19 125.25 C2 127 2 127 0 127 C0 127.66 0 128.32 0 129 C-1.5 130.45 -1.5 130.45 -3.56 132.12 C-9.42 137.11 -14.08 142.39 -18 149 C-18.66 149 -19.32 149 -20 149 C-20.13 149.78 -20.13 149.78 -20.26 150.57 C-21.29 153.96 -23.08 156.87 -24.81 159.94 C-27.54 164.85 -29.63 169.48 -31.12 174.94 C-33.01 181.69 -35.85 186.45 -41.31 190.88 C-48.56 193.91 -54.89 194.26 -62.56 192.94 C-63.43 192.8 -64.29 192.66 -65.18 192.51 C-81.9 189.61 -95.9 183.39 -110 174 C-110.74 173.51 -111.49 173.02 -112.25 172.51 C-113.88 171.4 -115.45 170.21 -117 169 C-117 168.34 -117 167.68 -117 167 C-117.55 166.79 -118.1 166.57 -118.66 166.36 C-121.82 164.53 -124.03 162.01 -126.44 159.31 C-126.93 158.77 -127.42 158.22 -127.92 157.66 C-136.6 147.91 -141.94 136.99 -147 125 C-147.5 123.82 -147.5 123.82 -148.01 122.62 C-155.36 103.19 -155.33 75.24 -147.06 56.19 C-146.73 55.51 -146.39 54.83 -146.04 54.12 C-144.47 50.92 -143.23 47.59 -141.93 44.26 C-141.05 42.12 -140.07 40.06 -139 38 C-138.34 38 -137.68 38 -137 38 C-136.92 37.46 -136.84 36.91 -136.75 36.36 C-134.03 27.81 -124.71 18.61 -118 13 C-117.34 13 -116.68 13 -116 13 C-116 12.34 -116 11.68 -116 11 C-114.68 10.67 -113.36 10.34 -112 10 C-112 9.34 -112 8.68 -112 8 C-80.19 -17.04 -35.06 -18.6 0 0 Z M-91 42 C-91 42.66 -91 43.32 -91 44 C-91.66 44 -92.32 44 -93 44 C-93 44.66 -93 45.32 -93 46 C-93.99 46.33 -94.98 46.66 -96 47 C-96 47.66 -96 48.32 -96 49 C-96.66 49 -97.32 49 -98 49 C-109.74 62.63 -114.14 79.39 -113.16 97.02 C-112.16 109.45 -105.92 124.11 -97 133 C-96.34 133 -95.68 133 -95 133 C-94.8 133.57 -94.59 134.13 -94.38 134.72 C-92.49 137.84 -89.85 139.52 -86.88 141.5 C-86 142.09 -86 142.09 -85.1 142.7 C-78.43 147.13 -73.04 150 -65 151 C-64.48 149.96 -63.96 148.92 -63.42 147.84 C-58.99 139.17 -54.22 131.02 -48.54 123.09 C-46.62 120.4 -45.05 118.16 -44 115 C-43.34 115 -42.68 115 -42 115 C-40.47 113.45 -40.47 113.45 -38.88 111.44 C-35.71 107.68 -32.31 104.55 -28.5 101.45 C-28.01 100.97 -27.51 100.49 -27 100 C-27 99.34 -27 98.68 -27 98 C-26.46 97.76 -25.91 97.52 -25.35 97.27 C-22.44 95.7 -19.99 93.77 -17.38 91.75 C-8.48 84.97 0.95 79.87 11 75 C9.56 66.89 6.28 58.42 1 52 C0.34 52 -0.32 52 -1 52 C-1.26 51.42 -1.52 50.83 -1.78 50.23 C-3.1 47.82 -4.55 46.18 -6.5 44.25 C-7.11 43.64 -7.72 43.02 -8.34 42.39 C-9.89 40.79 -9.89 40.79 -12 41 C-12 40.34 -12 39.68 -12 39 C-14.92 37.52 -17.85 36.05 -20.79 34.59 C-22.64 33.68 -24.48 32.75 -26.31 31.78 C-47.32 21.3 -73.52 27.96 -91 42 Z " fill="#000000" transform="translate(911,94)"/>
<path d="M0 0 C1.08 0.01 2.16 0.02 3.27 0.02 C13.62 0.21 21.99 2 31.44 6.38 C33.04 6.98 34.65 7.59 36.25 8.19 C42.8 10.78 48.6 14.48 54.44 18.38 C54.44 19.04 54.44 19.69 54.44 20.38 C55.12 20.58 55.8 20.79 56.5 21 C60.35 22.8 63.52 25.28 66.44 28.38 C66.44 29.04 66.44 29.69 66.44 30.38 C67.1 30.38 67.76 30.38 68.44 30.38 C71.32 33.53 73.85 36.98 76.44 40.38 C76.98 41.07 77.52 41.77 78.07 42.49 C81.44 46.98 81.44 46.98 81.44 50.38 C82.1 50.38 82.76 50.38 83.44 50.38 C92.44 66.71 96.8 83.55 96.75 102.19 C96.77 103.37 96.78 104.55 96.8 105.77 C96.81 126.44 88.89 147.88 76.44 164.38 C75.78 164.38 75.12 164.38 74.44 164.38 C74.11 165.69 73.78 167.01 73.44 168.38 C72.78 168.38 72.12 168.38 71.44 168.38 C71.19 168.95 70.94 169.52 70.68 170.11 C66.26 178.15 57.16 184.73 49.44 189.38 C48.45 189.38 47.46 189.38 46.44 189.38 C46.44 190.03 46.44 190.69 46.44 191.38 C40.06 194.82 33.73 197.43 26.81 199.58 C24.51 200.16 24.51 200.16 23.44 201.38 C3.85 207.63 -23.89 207.65 -42.47 198.39 C-44.73 197.3 -47.01 196.47 -49.38 195.62 C-61.78 190.69 -73.54 181.11 -82.56 171.38 C-82.56 170.72 -82.56 170.06 -82.56 169.38 C-83.22 169.38 -83.88 169.38 -84.56 169.38 C-86.26 167.26 -87.83 165.16 -89.38 162.94 C-90.05 161.97 -90.05 161.97 -90.74 160.99 C-100.98 146.22 -107.63 129.46 -108.56 111.38 C-108.62 110.44 -108.67 109.51 -108.72 108.55 C-108.95 101.18 -107.88 96.78 -103.69 90.62 C-99.77 86.48 -95.59 85.01 -90.3 83.32 C-86.93 82.16 -83.65 80.82 -80.38 79.44 C-79.23 78.95 -78.08 78.47 -76.89 77.97 C-73.48 76.44 -73.48 76.44 -70.32 74.18 C-67.56 72.38 -67.56 72.38 -64.56 72.38 C-64.56 71.72 -64.56 71.06 -64.56 70.38 C-62.94 69.11 -61.26 67.91 -59.56 66.75 C-50.87 60.7 -50.87 60.7 -44.56 52.38 C-43.9 52.38 -43.24 52.38 -42.56 52.38 C-42.34 51.86 -42.11 51.34 -41.88 50.81 C-40.56 48.38 -40.56 48.38 -38.31 45.38 C-35.33 41.28 -33.18 36.85 -30.98 32.29 C-29.82 29.91 -28.62 27.58 -27.38 25.25 C-25.9 22.35 -25.01 19.52 -24.19 16.38 C-22.46 10.28 -19.38 5.8 -14.59 1.68 C-9.82 -0.37 -5.13 -0.07 0 0 Z M9.44 41.38 C8.83 42.53 8.23 43.69 7.61 44.88 C6.8 46.42 5.99 47.96 5.19 49.5 C4.79 50.26 4.4 51.02 3.99 51.8 C2.18 55.25 0.35 58.6 -1.86 61.8 C-3.75 64.14 -3.75 64.14 -3.56 66.38 C-4.22 66.38 -4.88 66.38 -5.56 66.38 C-7.88 69.6 -7.88 69.6 -8.56 73.38 C-9.22 73.38 -9.88 73.38 -10.56 73.38 C-12.96 76.01 -12.96 76.01 -13.56 79.38 C-14.22 79.38 -14.88 79.38 -15.56 79.38 C-16.99 80.83 -16.99 80.83 -18.5 82.75 C-31.52 97.97 -48.65 108.76 -66.56 117.38 C-65.87 128.07 -59.4 137.43 -52.56 145.38 C-51.9 145.38 -51.24 145.38 -50.56 145.38 C-50.56 146.03 -50.56 146.69 -50.56 147.38 C-49.9 147.38 -49.24 147.38 -48.56 147.38 C-48.23 148.37 -47.9 149.36 -47.56 150.38 C-34.86 161.4 -18.85 166.08 -2.25 165.65 C11.54 164.62 24.76 159.27 35.44 150.38 C35.44 149.72 35.44 149.06 35.44 148.38 C36.43 148.05 37.42 147.72 38.44 147.38 C38.44 146.72 38.44 146.06 38.44 145.38 C39.1 145.38 39.76 145.38 40.44 145.38 C40.44 144.72 40.44 144.06 40.44 143.38 C41.1 143.38 41.76 143.38 42.44 143.38 C52.52 131.02 58.64 115.14 57.12 99.06 C56.9 97.5 56.67 95.94 56.44 94.38 C56.38 93.31 56.38 93.31 56.32 92.22 C55.77 83 52.28 74.46 46.44 67.38 C45.94 65.89 45.94 65.89 45.44 64.38 C44.78 64.38 44.12 64.38 43.44 64.38 C43.18 63.79 42.92 63.21 42.66 62.61 C41.34 60.19 39.89 58.56 37.94 56.62 C37.33 56.01 36.72 55.4 36.09 54.77 C34.54 53.16 34.54 53.16 32.44 53.38 C32.44 52.72 32.44 52.06 32.44 51.38 C25.92 46.86 17.61 41.38 9.44 41.38 Z " fill="#000000" transform="translate(1101.5625,316.625)"/>
<path d="M0 0 C1.89 0.97 3.68 1.46 5.75 1.9 C5.75 2.56 5.75 3.22 5.75 3.9 C6.32 4 6.9 4.11 7.48 4.21 C15.04 6.51 20.99 13.92 25.75 19.9 C26.31 20.58 26.87 21.26 27.45 21.95 C28.75 23.9 28.75 23.9 28.75 26.9 C29.41 26.9 30.07 26.9 30.75 26.9 C31.03 27.68 31.31 28.47 31.59 29.27 C32.14 30.79 32.14 30.79 32.69 32.34 C33.23 33.85 33.23 33.85 33.78 35.4 C34.52 37.81 34.52 37.81 35.75 38.9 C39.63 55.84 38.27 71.62 29.75 86.9 C19.14 103.55 19.14 103.55 12.55 105.58 C11.96 105.69 11.36 105.79 10.75 105.9 C10.75 106.56 10.75 107.22 10.75 107.9 C-4.55 116.86 -21.41 121.09 -39.06 116.84 C-50.42 113.05 -59.89 107.55 -68.25 98.9 C-68.9 98.23 -69.56 97.56 -70.24 96.87 C-81.31 84.91 -86.02 69.71 -85.7 53.63 C-85.18 41.63 -80.8 32.32 -75.25 21.9 C-74.59 21.9 -73.93 21.9 -73.25 21.9 C-72.99 21.16 -72.74 20.43 -72.48 19.66 C-71.15 16.7 -69.74 14.99 -67.43 12.71 C-66.77 12.04 -66.1 11.37 -65.41 10.67 C-63.11 8.79 -61.04 7.85 -58.25 6.9 C-58.25 6.24 -58.25 5.58 -58.25 4.9 C-56.35 3.94 -54.46 2.98 -52.56 2.03 C-51.5 1.49 -50.45 0.96 -49.36 0.41 C-34.57 -6.75 -14.65 -8.39 0 0 Z M-36.25 37.9 C-36.25 38.56 -36.25 39.22 -36.25 39.9 C-37.24 40.23 -38.23 40.56 -39.25 40.9 C-39.25 41.56 -39.25 42.22 -39.25 42.9 C-39.91 42.9 -40.57 42.9 -41.25 42.9 C-45.18 47.46 -45.23 53.13 -45.25 58.9 C-44.64 66.46 -40.64 70.99 -35.06 75.78 C-28.18 78.53 -21.1 78.56 -14.25 75.9 C-12.89 75.28 -11.55 74.63 -10.25 73.9 C-10.25 73.24 -10.25 72.58 -10.25 71.9 C-9.26 71.57 -8.27 71.24 -7.25 70.9 C-7.25 70.24 -7.25 69.58 -7.25 68.9 C-6.59 68.9 -5.93 68.9 -5.25 68.9 C-2.14 63.36 -1.78 57.4 -2.93 51.21 C-5.58 44.55 -7.73 40.4 -14.04 36.84 C-20.98 33.9 -29.71 33.98 -36.25 37.9 Z " fill="#000000" transform="translate(1002.24609375,245.09765625)"/>
</svg>
